<?xml version='1.0' encoding='UTF-8' standalone='no'?>
<svg version="1.2" baseProfile="tiny" height="104.987mm" width="146.389mm" xmlns:xlink="http://www.w3.org/1999/xlink" xmlns="http://www.w3.org/2000/svg" viewBox="0 0 1729 1240">
 <title>Qt SVG Document</title>
 <desc>Generated with Qt</desc>
 <defs/>
 <g stroke-linecap="square" stroke="black" stroke-linejoin="bevel" stroke-width="1" fill="none" fill-rule="evenodd">
  <g stroke-linecap="square" font-style="normal" font-family="MS Shell Dlg 2" font-weight="400" stroke-opacity="1" stroke="#000000" stroke-linejoin="bevel" stroke-width="1" fill="none" transform="matrix(1,0,0,1,0,0)" font-size="34.375"/>
  <g stroke-linecap="square" font-style="normal" font-family="MS Shell Dlg 2" font-weight="400" stroke-opacity="1" stroke="#000000" stroke-linejoin="bevel" stroke-width="1" fill="none" transform="matrix(1,0,0,1,0,0)" font-size="34.375"/>
  <g stroke-linecap="square" font-style="normal" font-family="MS Shell Dlg 2" font-weight="400" stroke-opacity="1" stroke="#000000" stroke-linejoin="bevel" stroke-width="1" fill="none" transform="matrix(11.8046,0,0,11.8046,0,0)" font-size="34.375"/>
  <g stroke-linecap="square" font-style="normal" font-family="MS Shell Dlg 2" font-weight="400" stroke-opacity="1" stroke="#000000" stroke-linejoin="bevel" stroke-width="1" fill="none" transform="matrix(0.999452,0,0,0.999452,0,0)" font-size="34.375"/>
  <g font-style="normal" font-family="MS Shell Dlg 2" font-weight="400" stroke="none" fill="#ffffff" fill-opacity="1" transform="matrix(0.999452,0,0,0.999452,0,0)" font-size="34.375">
   <path vector-effect="none" fill-rule="evenodd" d="M-2,-2 L1732,-2 L1732,1243 L-2,1243 L-2,-2"/>
  </g>
  <g stroke-linecap="square" font-style="normal" font-family="MS Shell Dlg 2" font-weight="400" stroke-opacity="1" stroke="#000000" stroke-linejoin="bevel" stroke-width="1" fill="none" transform="matrix(0.999452,0,0,0.999452,0,0)" font-size="34.375"/>
  <g stroke-linecap="square" font-style="normal" font-family="MS Shell Dlg 2" font-weight="400" stroke-opacity="1" stroke="#000000" stroke-linejoin="bevel" stroke-width="1" fill="none" transform="matrix(11.8046,0,0,11.8046,0,0)" font-size="34.375"/>
  <g stroke-linecap="square" font-style="normal" font-family="MS Shell Dlg 2" font-weight="400" stroke-opacity="1" stroke="#000000" stroke-linejoin="bevel" stroke-width="1" fill="none" transform="matrix(11.8046,0,0,11.8046,0,0)" font-size="34.375"/>
  <g stroke-linecap="square" font-style="normal" font-family="MS Shell Dlg 2" font-weight="400" stroke-opacity="1" stroke="#000000" stroke-linejoin="bevel" stroke-width="1" fill="none" transform="matrix(11.8046,0,0,11.8046,0,0)" font-size="34.375"/>
  <g stroke-linecap="square" font-style="normal" font-family="MS Shell Dlg 2" font-weight="400" stroke-opacity="1" stroke="#000000" stroke-linejoin="bevel" stroke-width="1" fill="none" transform="matrix(11.8046,0,0,11.8046,0,0)" font-size="34.375"/>
  <g stroke-linecap="square" font-style="normal" font-family="MS Shell Dlg 2" font-weight="400" stroke-opacity="1" stroke="#000000" stroke-linejoin="bevel" stroke-width="1" fill="none" transform="matrix(11.8046,0,0,11.8046,0,0)" font-size="34.375"/>
  <g font-style="normal" font-family="MS Shell Dlg 2" font-weight="400" stroke="none" fill="#fefee9" fill-opacity="1" transform="matrix(11.8046,0,0,11.8046,0,0)" font-size="34.375">
   <rect y="0" x="0" height="105" width="146.469"/>
  </g>
  <g stroke-linecap="square" font-style="normal" font-family="MS Shell Dlg 2" font-weight="400" stroke-opacity="1" stroke="#000000" stroke-linejoin="bevel" stroke-width="1" fill="none" transform="matrix(11.8046,0,0,11.8046,0,0)" font-size="34.375"/>
  <g stroke-linecap="square" font-style="normal" font-family="MS Shell Dlg 2" font-weight="400" stroke-opacity="1" stroke="#000000" stroke-linejoin="bevel" stroke-width="1" fill="none" transform="matrix(11.8046,0,0,11.8046,0,0)" font-size="34.375"/>
  <g font-style="normal" font-family="MS Shell Dlg 2" font-weight="400" stroke="none" fill="#000000" fill-opacity="0" transform="matrix(0.999452,0,0,0.999452,0,0)" font-size="34.375">
   <rect y="0" x="0" height="1240" width="1730"/>
  </g>
  <g stroke-linecap="square" font-style="normal" font-family="MS Shell Dlg 2" font-weight="400" stroke-opacity="0.490196" stroke="#232323" stroke-linejoin="bevel" stroke-width="3.07087" fill="#f6e1b9" fill-opacity="1" transform="matrix(0.999452,0,0,0.999452,0,0)" font-size="34.375">
   <path vector-effect="none" fill-rule="evenodd" d="M717.755,-3.22537 L717.755,-3.22537 L715.988,-7.21543 L715.988,-7.21543 L714.221,-11.2055 L714.221,-11.2055 L712.454,-15.1956 L712.454,-15.1956 L710.687,-19.1856 L710.687,-19.1856 L709.354,-24.318 L709.354,-24.318 L708.022,-29.4503 L708.022,-29.4503 L706.689,-34.5826 L706.689,-34.5826 L705.356,-39.715 L705.356,-39.715 L703.254,-43.261 L703.254,-43.261 L701.153,-46.8069 L701.153,-46.8069 L699.051,-50.3529 L699.051,-50.3529 L696.949,-53.8988 L696.949,-53.8988 L695.613,-56.3435 L695.613,-56.3435 L694.276,-58.7882 L694.276,-58.7882 L692.94,-61.2328 L692.94,-61.2328 L691.603,-63.6775 L691.603,-63.6775 L690.817,-64.4526 L690.817,-64.4526 L690.03,-65.2278 L690.03,-65.2278 L689.244,-66.003 L689.244,-66.003 L688.458,-66.7782 L688.458,-66.7782 L676.722,-77.3487 L676.722,-77.3487 L664.987,-87.9192 L664.987,-87.9192 L653.252,-98.4898 L653.252,-98.4898 L641.517,-109.06 L641.517,-109.06 L624.344,-125.318 L624.344,-125.318 L607.171,-141.577 L607.171,-141.577 L606.247,-142.452 L-170.845,-157.838 L-204.473,1362.35 L36.782,1367.5 L37.0372,1366.85 L37.0372,1366.85 L40.9713,1367.31 L40.9713,1367.31 L43.7998,1367.64 L82.0352,1368.43 L81.929,1367.98 L81.929,1367.98 L81.6361,1366.74 L81.6361,1366.74 L81.3432,1365.51 L81.3432,1365.51 L81.0503,1364.27 L81.0503,1364.27 L80.5176,1361.99 L80.5176,1361.99 L79.9848,1359.72 L79.9848,1359.72 L79.452,1357.44 L79.452,1357.44 L78.9193,1355.16 L78.9193,1355.16 L78.188,1352.76 L78.188,1352.76 L77.4567,1350.36 L77.4567,1350.36 L76.7255,1347.96 L76.7255,1347.96 L75.9942,1345.57 L75.9942,1345.57 L79.9388,1347.36 L79.9388,1347.36 L83.8834,1349.15 L83.8834,1349.15 L87.828,1350.95 L87.828,1350.95 L91.7726,1352.74 L91.7726,1352.74 L95.8477,1355.05 L95.8477,1355.05 L99.9227,1357.36 L99.9227,1357.36 L103.998,1359.67 L103.998,1359.67 L108.073,1361.98 L108.073,1361.98 L110.126,1361.73 L110.126,1361.73 L112.179,1361.48 L112.179,1361.48 L114.233,1361.23 L114.233,1361.23 L116.286,1360.98 L116.286,1360.98 L118.566,1359.8 L118.566,1359.8 L120.846,1358.62 L120.846,1358.62 L123.126,1357.45 L123.126,1357.45 L125.406,1356.27 L125.406,1356.27 L126.759,1356.81 L126.759,1356.81 L128.113,1357.36 L128.113,1357.36 L129.466,1357.91 L129.466,1357.91 L130.819,1358.45 L130.819,1358.45 L132.794,1359.56 L132.794,1359.56 L134.768,1360.67 L134.768,1360.67 L136.742,1361.79 L136.742,1361.79 L138.717,1362.9 L138.717,1362.9 L140.105,1361.29 L140.105,1361.29 L141.493,1359.68 L141.493,1359.68 L142.882,1358.07 L142.882,1358.07 L144.27,1356.46 L144.27,1356.46 L143.109,1355.29 L143.109,1355.29 L141.948,1354.11 L141.948,1354.11 L140.787,1352.94 L140.787,1352.94 L139.626,1351.77 L139.626,1351.77 L139.464,1350.8 L139.464,1350.8 L139.301,1349.83 L139.301,1349.83 L139.139,1348.86 L139.139,1348.86 L138.976,1347.89 L138.976,1347.89 L139.583,1343.13 L139.583,1343.13 L140.19,1338.37 L140.19,1338.37 L140.796,1333.61 L140.796,1333.61 L141.403,1328.84 L141.403,1328.84 L140.086,1324.02 L140.086,1324.02 L138.77,1319.19 L138.77,1319.19 L137.454,1314.37 L137.454,1314.37 L136.138,1309.54 L136.138,1309.54 L136.102,1308.73 L136.102,1308.73 L136.066,1307.93 L136.066,1307.93 L136.03,1307.12 L136.03,1307.12 L135.994,1306.31 L135.994,1306.31 L136.791,1302.38 L136.791,1302.38 L137.589,1298.45 L137.589,1298.45 L138.386,1294.52 L138.386,1294.52 L139.183,1290.58 L139.183,1290.58 L137.232,1286.31 L137.232,1286.31 L135.281,1282.03 L135.281,1282.03 L133.329,1277.75 L133.329,1277.75 L131.378,1273.47 L131.378,1273.47 L130.411,1272.05 L130.411,1272.05 L129.445,1270.62 L129.445,1270.62 L128.478,1269.2 L128.478,1269.2 L127.511,1267.78 L127.511,1267.78 L128.046,1266.43 L128.046,1266.43 L128.581,1265.08 L128.581,1265.08 L129.116,1263.73 L129.116,1263.73 L129.65,1262.39 L129.65,1262.39 L128.475,1263.19 L128.475,1263.19 L127.3,1264 L127.3,1264 L126.125,1264.81 L126.125,1264.81 L124.95,1265.62 L124.95,1265.62 L123.237,1264.7 L123.237,1264.7 L121.524,1263.79 L121.524,1263.79 L119.811,1262.88 L119.811,1262.88 L118.098,1261.96 L118.098,1261.96 L115.406,1261.08 L115.406,1261.08 L112.714,1260.2 L112.714,1260.2 L110.022,1259.32 L110.022,1259.32 L107.33,1258.44 L107.33,1258.44 L103.63,1256.63 L103.63,1256.63 L99.93,1254.82 L99.93,1254.82 L96.2301,1253.01 L96.2301,1253.01 L92.5301,1251.21 L92.5301,1251.21 L88.6471,1246.29 L88.6471,1246.29 L84.7642,1241.37 L84.7642,1241.37 L80.8812,1236.45 L80.8812,1236.45 L76.9982,1231.53 L76.9982,1231.53 L76.7238,1221.41 L76.7238,1221.41 L76.4494,1211.29 L76.4494,1211.29 L76.1751,1201.16 L76.1751,1201.16 L75.9007,1191.04 L75.9007,1191.04 L77.5126,1182.55 L77.5126,1182.55 L79.1245,1174.05 L79.1245,1174.05 L80.7364,1165.56 L80.7364,1165.56 L82.3484,1157.07 L82.3484,1157.07 L84.2217,1146.31 L84.2217,1146.31 L86.0949,1135.56 L86.0949,1135.56 L87.9682,1124.81 L87.9682,1124.81 L89.8415,1114.05 L89.8415,1114.05 L93.7397,1101.68 L93.7397,1101.68 L97.6378,1089.32 L97.6378,1089.32 L101.536,1076.95 L101.536,1076.95 L105.434,1064.59 L105.434,1064.59 L109.723,1061.03 L109.723,1061.03 L114.012,1057.48 L114.012,1057.48 L118.301,1053.93 L118.301,1053.93 L122.59,1050.37 L122.59,1050.37 L124.485,1047.38 L124.485,1047.38 L126.381,1044.4 L126.381,1044.4 L128.277,1041.41 L128.277,1041.41 L130.172,1038.42 L130.172,1038.42 L129.338,1035.16 L129.338,1035.16 L128.504,1031.91 L128.504,1031.91 L127.67,1028.66 L127.67,1028.66 L126.835,1025.4 L126.835,1025.4 L125.751,1021.88 L125.751,1021.88 L124.667,1018.35 L124.667,1018.35 L123.583,1014.83 L123.583,1014.83 L122.498,1011.3 L122.498,1011.3 L122.475,1008.86 L122.475,1008.86 L122.452,1006.41 L122.452,1006.41 L122.429,1003.97 L122.429,1003.97 L122.406,1001.52 L122.406,1001.52 L141.964,1003.08 L141.964,1003.08 L161.523,1004.63 L161.523,1004.63 L181.082,1006.19 L181.082,1006.19 L200.64,1007.74 L200.64,1007.74 L221.609,1010.11 L221.609,1010.11 L242.578,1012.47 L242.578,1012.47 L263.547,1014.84 L263.547,1014.84 L284.517,1017.2 L284.517,1017.2 L288.287,1017.05 L288.287,1017.05 L292.057,1016.89 L292.057,1016.89 L295.828,1016.74 L295.828,1016.74 L299.598,1016.58 L299.598,1016.58 L303.753,1015.41 L303.753,1015.41 L307.907,1014.23 L307.907,1014.23 L312.062,1013.05 L312.062,1013.05 L316.217,1011.87 L316.217,1011.87 L320.142,1011.21 L320.142,1011.21 L324.066,1010.55 L324.066,1010.55 L327.991,1009.9 L327.991,1009.9 L331.916,1009.24 L331.916,1009.24 L333.795,1010.19 L333.795,1010.19 L335.675,1011.14 L335.675,1011.14 L337.555,1012.09 L337.555,1012.09 L339.434,1013.04 L339.434,1013.04 L340.249,1011.51 L340.249,1011.51 L341.064,1009.98 L341.064,1009.98 L341.879,1008.46 L341.879,1008.46 L342.694,1006.93 L342.694,1006.93 L343.269,1004.39 L343.269,1004.39 L343.844,1001.85 L343.844,1001.85 L344.419,999.31 L344.419,999.31 L344.995,996.771 L344.995,996.771 L347.761,994.721 L347.761,994.721 L350.527,992.672 L350.527,992.672 L353.294,990.623 L353.294,990.623 L356.06,988.573 L356.06,988.573 L362.964,984.181 L362.964,984.181 L369.868,979.788 L369.868,979.788 L376.773,975.396 L376.773,975.396 L383.677,971.004 L383.677,971.004 L391.354,966.051 L391.354,966.051 L399.031,961.098 L399.031,961.098 L406.708,956.145 L406.708,956.145 L414.385,951.193 L414.385,951.193 L418.863,949.204 L418.863,949.204 L423.342,947.216 L423.342,947.216 L427.82,945.227 L427.82,945.227 L432.298,943.238 L432.298,943.238 L434.023,943.939 L434.023,943.939 L435.748,944.639 L435.748,944.639 L437.473,945.339 L437.473,945.339 L439.199,946.04 L439.199,946.04 L439.851,944.755 L439.851,944.755 L440.504,943.47 L440.504,943.47 L441.157,942.185 L441.157,942.185 L441.809,940.9 L441.809,940.9 L442.254,938.705 L442.254,938.705 L442.698,936.511 L442.698,936.511 L443.143,934.317 L443.143,934.317 L443.587,932.122 L443.587,932.122 L450.025,927.253 L450.025,927.253 L456.463,922.384 L456.463,922.384 L462.901,917.514 L462.901,917.514 L469.339,912.645 L469.339,912.645 L483.953,900.299 L483.953,900.299 L498.566,887.954 L498.566,887.954 L513.18,875.608 L513.18,875.608 L527.794,863.263 L527.794,863.263 L537.61,855.441 L537.61,855.441 L547.426,847.62 L547.426,847.62 L557.242,839.799 L557.242,839.799 L567.059,831.978 L567.059,831.978 L567.688,831.313 L567.688,831.313 L568.316,830.648 L568.316,830.648 L568.945,829.983 L568.945,829.983 L569.574,829.318 L569.574,829.318 L572.493,825.442 L572.493,825.442 L575.412,821.566 L575.412,821.566 L578.331,817.691 L578.331,817.691 L581.25,813.815 L581.25,813.815 L586.341,808.897 L586.341,808.897 L591.432,803.979 L591.432,803.979 L596.523,799.061 L596.523,799.061 L601.614,794.143 L601.614,794.143 L608.383,786.427 L608.383,786.427 L615.153,778.712 L615.153,778.712 L621.923,770.996 L621.923,770.996 L628.693,763.28 L628.693,763.28 L635.436,757.27 L635.436,757.27 L642.179,751.26 L642.179,751.26 L648.923,745.249 L648.923,745.249 L655.666,739.239 L655.666,739.239 L657.466,738.483 L657.466,738.483 L659.266,737.727 L659.266,737.727 L661.066,736.972 L661.066,736.972 L662.867,736.216 L662.867,736.216 L662.77,735.061 L662.77,735.061 L662.674,733.906 L662.674,733.906 L662.578,732.751 L662.578,732.751 L662.481,731.596 L662.481,731.596 L662.72,730.123 L662.72,730.123 L662.959,728.649 L662.959,728.649 L663.197,727.175 L663.197,727.175 L663.436,725.701 L663.436,725.701 L666.34,722.305 L666.34,722.305 L669.244,718.909 L669.244,718.909 L672.148,715.513 L672.148,715.513 L675.051,712.117 L675.051,712.117 L678.465,708.049 L678.465,708.049 L681.879,703.981 L681.879,703.981 L685.293,699.913 L685.293,699.913 L688.707,695.845 L688.707,695.845 L690.983,691.946 L690.983,691.946 L693.258,688.047 L693.258,688.047 L695.534,684.148 L695.534,684.148 L697.81,680.248 L697.81,680.248 L699.513,677.082 L699.513,677.082 L701.215,673.916 L701.215,673.916 L702.918,670.75 L702.918,670.75 L704.621,667.584 L704.621,667.584 L704.829,666.14 L704.829,666.14 L705.038,664.695 L705.038,664.695 L705.246,663.25 L705.246,663.25 L705.455,661.806 L705.455,661.806 L704.919,658.255 L704.919,658.255 L704.383,654.705 L704.383,654.705 L703.846,651.154 L703.846,651.154 L703.31,647.604 L703.31,647.604 L701.698,636.601 L701.698,636.601 L700.086,625.597 L700.086,625.597 L698.474,614.594 L698.474,614.594 L696.862,603.591 L696.862,603.591 L695.005,593.01 L695.005,593.01 L693.149,582.429 L693.149,582.429 L691.292,571.848 L691.292,571.848 L689.435,561.267 L689.435,561.267 L690.004,558.399 L690.004,558.399 L690.573,555.53 L690.573,555.53 L691.142,552.662 L691.142,552.662 L691.711,549.794 L691.711,549.794 L694.853,551.059 L694.853,551.059 L697.996,552.323 L697.996,552.323 L701.138,553.588 L701.138,553.588 L704.28,554.853 L704.28,554.853 L710.463,559.628 L710.463,559.628 L716.646,564.403 L716.646,564.403 L722.83,569.178 L722.83,569.178 L729.013,573.953 L729.013,573.953 L733.574,576.469 L733.574,576.469 L738.134,578.986 L738.134,578.986 L742.695,581.502 L742.695,581.502 L747.256,584.018 L747.256,584.018 L749.709,577.921 L749.709,577.921 L752.162,571.824 L752.162,571.824 L754.614,565.728 L754.614,565.728 L757.067,559.631 L757.067,559.631 L758.916,553.779 L758.916,553.779 L760.765,547.927 L760.765,547.927 L762.613,542.075 L762.613,542.075 L764.462,536.223 L764.462,536.223 L763.07,534.261 L763.07,534.261 L761.678,532.299 L761.678,532.299 L760.285,530.337 L760.285,530.337 L758.893,528.375 L758.893,528.375 L758.746,525.515 L758.746,525.515 L758.599,522.655 L758.599,522.655 L758.451,519.795 L758.451,519.795 L758.304,516.935 L758.304,516.935 L757.229,512.843 L757.229,512.843 L756.155,508.751 L756.155,508.751 L755.08,504.659 L755.08,504.659 L754.005,500.567 L754.005,500.567 L752.867,496.624 L752.867,496.624 L751.73,492.681 L751.73,492.681 L750.593,488.738 L750.593,488.738 L749.456,484.796 L749.456,484.796 L753.996,486.697 L753.996,486.697 L758.537,488.598 L758.537,488.598 L763.078,490.499 L763.078,490.499 L767.618,492.4 L767.618,492.4 L772.124,494.38 L772.124,494.38 L776.629,496.36 L776.629,496.36 L781.134,498.339 L781.134,498.339 L785.639,500.319 L785.639,500.319 L788.905,496.598 L788.905,496.598 L792.17,492.877 L792.17,492.877 L795.436,489.156 L795.436,489.156 L798.702,485.435 L798.702,485.435 L802.237,481.437 L802.237,481.437 L805.773,477.44 L805.773,477.44 L809.308,473.442 L809.308,473.442 L812.844,469.444 L812.844,469.444 L816.16,467.868 L816.16,467.868 L819.477,466.291 L819.477,466.291 L822.794,464.715 L822.794,464.715 L826.11,463.139 L826.11,463.139 L829.174,462.64 L829.174,462.64 L832.238,462.142 L832.238,462.142 L835.302,461.643 L835.302,461.643 L838.366,461.144 L838.366,461.144 L841.968,460.443 L841.968,460.443 L845.57,459.743 L845.57,459.743 L849.172,459.042 L849.172,459.042 L852.774,458.341 L852.774,458.341 L855.735,459.252 L855.735,459.252 L858.696,460.164 L858.696,460.164 L861.657,461.076 L861.657,461.076 L864.618,461.987 L864.618,461.987 L866.365,463.182 L866.365,463.182 L868.112,464.377 L868.112,464.377 L869.859,465.572 L869.859,465.572 L871.605,466.767 L871.605,466.767 L873.434,468.083 L873.434,468.083 L875.264,469.399 L875.264,469.399 L877.093,470.714 L877.093,470.714 L878.922,472.03 L878.922,472.03 L879.477,475.68 L879.477,475.68 L880.033,479.33 L880.033,479.33 L880.588,482.979 L880.588,482.979 L881.143,486.629 L881.143,486.629 L881.607,489.335 L881.607,489.335 L882.071,492.042 L882.071,492.042 L882.535,494.748 L882.535,494.748 L882.999,497.454 L882.999,497.454 L884.649,496.658 L884.649,496.658 L886.298,495.862 L886.298,495.862 L887.947,495.066 L887.947,495.066 L889.597,494.27 L889.597,494.27 L892.445,494.317 L892.445,494.317 L895.294,494.364 L895.294,494.364 L898.142,494.411 L898.142,494.411 L900.991,494.458 L900.991,494.458 L903.263,495.128 L903.263,495.128 L905.534,495.797 L905.534,495.797 L907.806,496.467 L907.806,496.467 L910.078,497.137 L910.078,497.137 L914.567,496.693 L914.567,496.693 L919.056,496.25 L919.056,496.25 L923.544,495.807 L923.544,495.807 L928.033,495.364 L928.033,495.364 L931.93,496.274 L931.93,496.274 L935.828,497.184 L935.828,497.184 L939.725,498.094 L939.725,498.094 L943.622,499.004 L943.622,499.004 L942.442,499.62 L942.442,499.62 L941.262,500.236 L941.262,500.236 L940.081,500.852 L940.081,500.852 L938.901,501.468 L938.901,501.468 L935.466,502.262 L935.466,502.262 L932.031,503.057 L932.031,503.057 L928.597,503.851 L928.597,503.851 L925.162,504.646 L925.162,504.646 L921.329,508.558 L921.329,508.558 L917.496,512.471 L917.496,512.471 L913.663,516.384 L913.663,516.384 L909.83,520.297 L909.83,520.297 L906.904,523.802 L906.904,523.802 L903.978,527.307 L903.978,527.307 L901.052,530.812 L901.052,530.812 L898.126,534.317 L898.126,534.317 L896.336,535.871 L896.336,535.871 L894.546,537.426 L894.546,537.426 L892.755,538.981 L892.755,538.981 L890.965,540.535 L890.965,540.535 L889.344,543.114 L889.344,543.114 L887.722,545.693 L887.722,545.693 L886.101,548.272 L886.101,548.272 L884.48,550.851 L884.48,550.851 L883.409,553.325 L883.409,553.325 L882.339,555.8 L882.339,555.8 L881.269,558.275 L881.269,558.275 L880.199,560.75 L880.199,560.75 L881.856,562.239 L881.856,562.239 L883.513,563.729 L883.513,563.729 L885.17,565.219 L885.17,565.219 L886.827,566.708 L886.827,566.708 L888.771,569.581 L888.771,569.581 L890.714,572.453 L890.714,572.453 L892.657,575.326 L892.657,575.326 L894.601,578.198 L894.601,578.198 L903.396,580.987 L903.396,580.987 L912.191,583.775 L912.191,583.775 L920.985,586.563 L920.985,586.563 L929.78,589.351 L929.78,589.351 L938.457,590.002 L938.457,590.002 L947.133,590.652 L947.133,590.652 L955.81,591.302 L955.81,591.302 L964.486,591.952 L964.486,591.952 L968.863,592.991 L968.863,592.991 L973.239,594.029 L973.239,594.029 L977.615,595.068 L977.615,595.068 L981.991,596.106 L981.991,596.106 L985.478,595.908 L985.478,595.908 L988.966,595.71 L988.966,595.71 L992.453,595.513 L992.453,595.513 L995.94,595.315 L995.94,595.315 L995.495,593.29 L995.495,593.29 L995.049,591.265 L995.049,591.265 L994.603,589.24 L994.603,589.24 L994.158,587.215 L994.158,587.215 L995.084,584.903 L995.084,584.903 L996.01,582.591 L996.01,582.591 L996.936,580.278 L996.936,580.278 L997.862,577.966 L997.862,577.966 L998.278,575.164 L998.278,575.164 L998.695,572.363 L998.695,572.363 L999.111,569.562 L999.111,569.562 L999.528,566.76 L999.528,566.76 L999.143,563.758 L999.143,563.758 L998.757,560.756 L998.757,560.756 L998.372,557.754 L998.372,557.754 L997.986,554.752 L997.986,554.752 L998.527,553.051 L998.527,553.051 L999.068,551.35 L999.068,551.35 L999.609,549.649 L999.609,549.649 L1000.15,547.948 L1000.15,547.948 L999.783,546.86 L999.783,546.86 L999.417,545.772 L999.417,545.772 L999.05,544.684 L999.05,544.684 L998.684,543.596 L998.684,543.596 L997.656,542.048 L997.656,542.048 L996.628,540.501 L996.628,540.501 L995.6,538.953 L995.6,538.953 L994.572,537.405 L994.572,537.405 L993.473,536.517 L993.473,536.517 L992.374,535.629 L992.374,535.629 L991.275,534.74 L991.275,534.74 L990.176,533.852 L990.176,533.852 L989.898,531.843 L989.898,531.843 L989.62,529.834 L989.62,529.834 L989.343,527.825 L989.343,527.825 L989.065,525.816 L989.065,525.816 L989.01,523.499 L989.01,523.499 L988.955,521.181 L988.955,521.181 L988.9,518.863 L988.9,518.863 L988.845,516.545 L988.845,516.545 L986.978,516.542 L986.978,516.542 L985.111,516.539 L985.111,516.539 L983.244,516.536 L983.244,516.536 L981.377,516.534 L981.377,516.534 L980.798,516.175 L980.798,516.175 L980.218,515.817 L980.218,515.817 L979.638,515.458 L979.638,515.458 L979.059,515.1 L979.059,515.1 L978.178,513.263 L978.178,513.263 L977.298,511.427 L977.298,511.427 L976.417,509.59 L976.417,509.59 L975.536,507.754 L975.536,507.754 L973.418,507.398 L973.418,507.398 L971.301,507.042 L971.301,507.042 L969.183,506.686 L969.183,506.686 L967.065,506.331 L967.065,506.331 L965.24,505.809 L965.24,505.809 L963.415,505.288 L963.415,505.288 L961.59,504.766 L961.59,504.766 L959.764,504.245 L959.764,504.245 L958.833,502.126 L958.833,502.126 L957.901,500.008 L957.901,500.008 L956.97,497.889 L956.97,497.889 L956.038,495.77 L956.038,495.77 L956.831,494.222 L956.831,494.222 L957.624,492.674 L957.624,492.674 L958.416,491.125 L958.416,491.125 L959.209,489.577 L959.209,489.577 L961.627,488.759 L961.627,488.759 L964.044,487.942 L964.044,487.942 L966.462,487.124 L966.462,487.124 L968.88,486.307 L968.88,486.307 L970.955,484.922 L970.955,484.922 L973.031,483.536 L973.031,483.536 L975.107,482.151 L975.107,482.151 L977.183,480.765 L977.183,480.765 L978.291,480.721 L978.291,480.721 L979.399,480.677 L979.399,480.677 L980.508,480.633 L980.508,480.633 L981.616,480.588 L981.616,480.588 L983.277,479.7 L983.277,479.7 L984.937,478.812 L984.937,478.812 L986.597,477.924 L986.597,477.924 L988.257,477.036 L988.257,477.036 L988.555,474.364 L988.555,474.364 L988.853,471.692 L988.853,471.692 L989.15,469.02 L989.15,469.02 L989.448,466.348 L989.448,466.348 L985.8,464.1 L985.8,464.1 L982.152,461.851 L982.152,461.851 L978.504,459.603 L978.504,459.603 L974.856,457.354 L974.856,457.354 L972.448,454.473 L972.448,454.473 L970.039,451.591 L970.039,451.591 L967.63,448.709 L967.63,448.709 L965.222,445.828 L965.222,445.828 L966.947,444.489 L966.947,444.489 L968.671,443.151 L968.671,443.151 L970.396,441.812 L970.396,441.812 L972.121,440.474 L972.121,440.474 L976.39,441.608 L976.39,441.608 L980.659,442.741 L980.659,442.741 L984.928,443.875 L984.928,443.875 L989.197,445.009 L989.197,445.009 L993.237,445.472 L993.237,445.472 L997.278,445.935 L997.278,445.935 L1001.32,446.398 L1001.32,446.398 L1005.36,446.861 L1005.36,446.861 L1004.14,444.324 L1004.14,444.324 L1002.93,441.788 L1002.93,441.788 L1001.71,439.251 L1001.71,439.251 L1000.49,436.714 L1000.49,436.714 L998.731,434.446 L998.731,434.446 L996.968,432.178 L996.968,432.178 L995.206,429.91 L995.206,429.91 L993.443,427.642 L993.443,427.642 L995.71,426.539 L995.71,426.539 L997.978,425.436 L997.978,425.436 L1000.24,424.333 L1000.24,424.333 L1002.51,423.23 L1002.51,423.23 L1001.88,421.713 L1001.88,421.713 L1001.25,420.195 L1001.25,420.195 L1000.62,418.677 L1000.62,418.677 L999.996,417.16 L999.996,417.16 L996.485,415.014 L996.485,415.014 L992.974,412.869 L992.974,412.869 L989.463,410.723 L989.463,410.723 L985.952,408.577 L985.952,408.577 L982.701,407.241 L982.701,407.241 L979.451,405.905 L979.451,405.905 L976.2,404.568 L976.2,404.568 L972.949,403.232 L972.949,403.232 L969.129,402.21 L969.129,402.21 L965.308,401.188 L965.308,401.188 L961.487,400.166 L961.487,400.166 L957.666,399.144 L957.666,399.144 L955.721,396.861 L955.721,396.861 L953.777,394.578 L953.777,394.578 L951.833,392.295 L951.833,392.295 L949.889,390.012 L949.889,390.012 L948.46,387.63 L948.46,387.63 L947.031,385.247 L947.031,385.247 L945.603,382.864 L945.603,382.864 L944.174,380.481 L944.174,380.481 L941.074,377.552 L941.074,377.552 L937.975,374.623 L937.975,374.623 L934.875,371.694 L934.875,371.694 L931.775,368.766 L931.775,368.766 L929.075,367.239 L929.075,367.239 L926.376,365.712 L926.376,365.712 L923.676,364.184 L923.676,364.184 L920.976,362.657 L920.976,362.657 L919.009,361.879 L919.009,361.879 L917.043,361.101 L917.043,361.101 L915.076,360.323 L915.076,360.323 L913.109,359.545 L913.109,359.545 L910.004,358.829 L910.004,358.829 L906.898,358.113 L906.898,358.113 L903.793,357.396 L903.793,357.396 L900.687,356.68 L900.687,356.68 L898.115,358.874 L898.115,358.874 L895.543,361.069 L895.543,361.069 L892.97,363.263 L892.97,363.263 L890.398,365.458 L890.398,365.458 L887.303,368.475 L887.303,368.475 L884.208,371.492 L884.208,371.492 L881.113,374.509 L881.113,374.509 L878.018,377.526 L878.018,377.526 L874.579,378.341 L874.579,378.341 L871.141,379.156 L871.141,379.156 L867.702,379.971 L867.702,379.971 L864.264,380.786 L864.264,380.786 L861.736,381.369 L861.736,381.369 L859.208,381.953 L859.208,381.953 L856.681,382.537 L856.681,382.537 L854.153,383.12 L854.153,383.12 L850.8,384.198 L850.8,384.198 L847.448,385.276 L847.448,385.276 L844.096,386.354 L844.096,386.354 L840.744,387.432 L840.744,387.432 L838.151,388.081 L838.151,388.081 L835.558,388.73 L835.558,388.73 L832.966,389.379 L832.966,389.379 L830.373,390.027 L830.373,390.027 L829.647,389.745 L829.647,389.745 L828.921,389.463 L828.921,389.463 L828.194,389.18 L828.194,389.18 L827.468,388.898 L827.468,388.898 L825.951,387.881 L825.951,387.881 L824.435,386.865 L824.435,386.865 L822.918,385.849 L822.918,385.849 L821.401,384.833 L821.401,384.833 L819.706,384.967 L819.706,384.967 L818.011,385.1 L818.011,385.1 L816.316,385.234 L816.316,385.234 L814.62,385.367 L814.62,385.367 L815.09,386.712 L815.09,386.712 L815.559,388.057 L815.559,388.057 L816.029,389.402 L816.029,389.402 L816.498,390.747 L816.498,390.747 L817.051,392.759 L817.051,392.759 L817.603,394.771 L817.603,394.771 L818.156,396.783 L818.156,396.783 L818.708,398.795 L818.708,398.795 L816.866,400.111 L816.866,400.111 L815.024,401.427 L815.024,401.427 L813.181,402.742 L813.181,402.742 L811.339,404.058 L811.339,404.058 L808.496,403.55 L808.496,403.55 L805.653,403.042 L805.653,403.042 L802.81,402.534 L802.81,402.534 L799.966,402.026 L799.966,402.026 L798.543,399.744 L798.543,399.744 L797.119,397.462 L797.119,397.462 L795.696,395.179 L795.696,395.179 L794.272,392.897 L794.272,392.897 L793.083,391.347 L793.083,391.347 L791.894,389.796 L791.894,389.796 L790.705,388.246 L790.705,388.246 L789.516,386.696 L789.516,386.696 L787.812,384.983 L787.812,384.983 L786.109,383.27 L786.109,383.27 L784.405,381.558 L784.405,381.558 L782.702,379.845 L782.702,379.845 L783.042,376.547 L783.042,376.547 L783.381,373.249 L783.381,373.249 L783.721,369.951 L783.721,369.951 L784.061,366.653 L784.061,366.653 L783.706,363.282 L783.706,363.282 L783.351,359.912 L783.351,359.912 L782.996,356.541 L782.996,356.541 L782.641,353.171 L782.641,353.171 L780.311,351.283 L780.311,351.283 L777.981,349.396 L777.981,349.396 L775.651,347.508 L775.651,347.508 L773.321,345.62 L773.321,345.62 L771.953,344.679 L771.953,344.679 L770.585,343.738 L770.585,343.738 L769.217,342.797 L769.217,342.797 L767.849,341.856 L767.849,341.856 L768.781,339.695 L768.781,339.695 L769.714,337.534 L769.714,337.534 L770.646,335.373 L770.646,335.373 L771.579,333.211 L771.579,333.211 L774.26,331.443 L774.26,331.443 L776.941,329.674 L776.941,329.674 L779.622,327.906 L779.622,327.906 L782.303,326.137 L782.303,326.137 L785.137,325.878 L785.137,325.878 L787.971,325.618 L787.971,325.618 L790.804,325.359 L790.804,325.359 L793.638,325.099 L793.638,325.099 L795.737,322.974 L795.737,322.974 L797.836,320.85 L797.836,320.85 L799.935,318.725 L799.935,318.725 L802.033,316.6 L802.033,316.6 L804.397,314.139 L804.397,314.139 L806.761,311.678 L806.761,311.678 L809.125,309.218 L809.125,309.218 L811.489,306.757 L811.489,306.757 L814.449,307.147 L814.449,307.147 L817.408,307.538 L817.408,307.538 L820.367,307.928 L820.367,307.928 L823.326,308.319 L823.326,308.319 L824.582,307.804 L824.582,307.804 L825.838,307.29 L825.838,307.29 L827.095,306.775 L827.095,306.775 L828.351,306.261 L828.351,306.261 L827.862,302.639 L827.862,302.639 L827.373,299.017 L827.373,299.017 L826.885,295.394 L826.885,295.394 L826.396,291.772 L826.396,291.772 L824.22,288.728 L824.22,288.728 L822.044,285.684 L822.044,285.684 L819.868,282.64 L819.868,282.64 L817.692,279.596 L817.692,279.596 L810.237,280.998 L810.237,280.998 L802.781,282.4 L802.781,282.4 L795.326,283.803 L795.326,283.803 L787.871,285.205 L787.871,285.205 L777.566,287.586 L777.566,287.586 L767.262,289.967 L767.262,289.967 L756.957,292.348 L756.957,292.348 L746.653,294.729 L746.653,294.729 L741.44,295.012 L741.44,295.012 L736.227,295.295 L736.227,295.295 L731.014,295.579 L731.014,295.579 L725.801,295.862 L725.801,295.862 L724.233,294.659 L724.233,294.659 L722.666,293.455 L722.666,293.455 L721.099,292.252 L721.099,292.252 L719.532,291.049 L719.532,291.049 L718.732,286.336 L718.732,286.336 L717.932,281.624 L717.932,281.624 L717.132,276.911 L717.132,276.911 L716.332,272.199 L716.332,272.199 L716.76,261.579 L716.76,261.579 L717.188,250.958 L717.188,250.958 L717.615,240.337 L717.615,240.337 L718.043,229.717 L718.043,229.717 L719.119,221.925 L719.119,221.925 L720.195,214.134 L720.195,214.134 L721.271,206.342 L721.271,206.342 L722.347,198.551 L722.347,198.551 L722.434,195.575 L722.434,195.575 L722.521,192.6 L722.521,192.6 L722.609,189.625 L722.609,189.625 L722.696,186.65 L722.696,186.65 L721.998,183.414 L721.998,183.414 L721.299,180.178 L721.299,180.178 L720.601,176.942 L720.601,176.942 L719.903,173.706 L719.903,173.706 L720.575,171.373 L720.575,171.373 L721.247,169.04 L721.247,169.04 L721.919,166.707 L721.919,166.707 L722.591,164.375 L722.591,164.375 L724.785,162.394 L724.785,162.394 L726.979,160.414 L726.979,160.414 L729.173,158.434 L729.173,158.434 L731.367,156.453 L731.367,156.453 L731.563,155.828 L731.563,155.828 L731.759,155.203 L731.759,155.203 L731.955,154.578 L731.955,154.578 L732.15,153.952 L732.15,153.952 L729.918,153.559 L729.918,153.559 L727.685,153.165 L727.685,153.165 L725.453,152.772 L725.453,152.772 L723.221,152.378 L723.221,152.378 L721.693,139.565 L721.693,139.565 L720.165,126.752 L720.165,126.752 L718.637,113.939 L718.637,113.939 L717.11,101.127 L717.11,101.127 L716.393,84.0528 L716.393,84.0528 L715.677,66.9791 L715.677,66.9791 L714.961,49.9053 L714.961,49.9053 L714.244,32.8315 L714.244,32.8315 L715.255,26.2624 L715.255,26.2624 L716.266,19.6932 L716.266,19.6932 L717.277,13.1241 L717.277,13.1241 L718.288,6.555 L718.288,6.555 L719.442,4.81069 L719.442,4.81069 L720.595,3.06638 L720.595,3.06638 L721.749,1.32207 L721.749,1.32207 L722.902,-0.422233 L722.902,-0.422233 L721.615,-1.12302 L721.615,-1.12302 L720.329,-1.8238 L720.329,-1.8238 L719.042,-2.52459 L719.042,-2.52459 L717.755,-3.22537"/>
   <path vector-effect="none" fill-rule="evenodd" d=""/>
   <path vector-effect="none" fill-rule="evenodd" d=""/>
   <path vector-effect="none" fill-rule="evenodd" d=""/>
   <path vector-effect="none" fill-rule="evenodd" d="M815.058,-19.7898 L815.058,-19.7898 L813.391,-19.9818 L813.391,-19.9818 L811.725,-20.1738 L811.725,-20.1738 L810.059,-20.3659 L810.059,-20.3659 L808.392,-20.5579 L808.392,-20.5579 L806.398,-20.8484 L806.398,-20.8484 L804.403,-21.139 L804.403,-21.139 L802.409,-21.4295 L802.409,-21.4295 L800.414,-21.7201 L800.414,-21.7201 L798.625,-22.7215 L798.625,-22.7215 L796.836,-23.7228 L796.836,-23.7228 L795.047,-24.7242 L795.047,-24.7242 L793.258,-25.7256 L793.258,-25.7256 L789.158,-25.4705 L789.158,-25.4705 L785.058,-25.2153 L785.058,-25.2153 L780.959,-24.9602 L780.959,-24.9602 L776.859,-24.7051 L776.859,-24.7051 L772.474,-23.2355 L772.474,-23.2355 L768.088,-21.7659 L768.088,-21.7659 L763.703,-20.2963 L763.703,-20.2963 L759.318,-18.8267 L759.318,-18.8267 L758.513,-18.0598 L758.513,-18.0598 L757.709,-17.2928 L757.709,-17.2928 L756.905,-16.5259 L756.905,-16.5259 L756.1,-15.759 L756.1,-15.759 L754.692,-14.2798 L754.692,-14.2798 L753.284,-12.8005 L753.284,-12.8005 L751.876,-11.3213 L751.876,-11.3213 L750.468,-9.84212 L750.468,-9.84212 L746.873,-7.61057 L746.873,-7.61057 L743.278,-5.37903 L743.278,-5.37903 L739.683,-3.14748 L739.683,-3.14748 L736.089,-0.915934 L736.089,-0.915934 L735.122,2.3631 L735.122,2.3631 L734.156,5.64214 L734.156,5.64214 L733.19,8.92117 L733.19,8.92117 L732.224,12.2002 L732.224,12.2002 L733.636,14.8606 L733.636,14.8606 L735.049,17.5211 L735.049,17.5211 L736.461,20.1815 L736.461,20.1815 L737.874,22.842 L737.874,22.842 L738.565,23.6467 L738.565,23.6467 L739.257,24.4515 L739.257,24.4515 L739.948,25.2563 L739.948,25.2563 L740.64,26.0611 L740.64,26.0611 L742.437,27.4162 L742.437,27.4162 L744.234,28.7712 L744.234,28.7712 L746.031,30.1263 L746.031,30.1263 L747.828,31.4814 L747.828,31.4814 L750.337,32.2708 L750.337,32.2708 L752.847,33.0602 L752.847,33.0602 L755.356,33.8497 L755.356,33.8497 L757.866,34.6391 L757.866,34.6391 L759.469,33.27 L759.469,33.27 L761.072,31.901 L761.072,31.901 L762.676,30.5319 L762.676,30.5319 L764.279,29.1628 L764.279,29.1628 L765.75,30.9427 L765.75,30.9427 L767.221,32.7226 L767.221,32.7226 L768.692,34.5025 L768.692,34.5025 L770.163,36.2823 L770.163,36.2823 L772.961,37.572 L772.961,37.572 L775.759,38.8616 L775.759,38.8616 L778.556,40.1513 L778.556,40.1513 L781.354,41.4409 L781.354,41.4409 L782.672,39.5908 L782.672,39.5908 L783.989,37.7406 L783.989,37.7406 L785.306,35.8905 L785.306,35.8905 L786.623,34.0403 L786.623,34.0403 L787.351,32.8051 L787.351,32.8051 L788.078,31.5699 L788.078,31.5699 L788.806,30.3346 L788.806,30.3346 L789.533,29.0994 L789.533,29.0994 L790.759,27.5742 L790.759,27.5742 L791.984,26.0489 L791.984,26.0489 L793.21,24.5237 L793.21,24.5237 L794.435,22.9984 L794.435,22.9984 L795.813,21.581 L795.813,21.581 L797.19,20.1636 L797.19,20.1636 L798.568,18.7461 L798.568,18.7461 L799.945,17.3287 L799.945,17.3287 L801.665,15.5069 L801.665,15.5069 L803.385,13.6852 L803.385,13.6852 L805.104,11.8634 L805.104,11.8634 L806.824,10.0416 L806.824,10.0416 L808.642,7.31479 L808.642,7.31479 L810.46,4.58798 L810.46,4.58798 L812.278,1.86117 L812.278,1.86117 L814.096,-0.86564 L814.096,-0.86564 L816.207,-2.0575 L816.207,-2.0575 L818.317,-3.24936 L818.317,-3.24936 L820.427,-4.44122 L820.427,-4.44122 L822.538,-5.63308 L822.538,-5.63308 L824.058,-4.82636 L824.058,-4.82636 L825.578,-4.01963 L825.578,-4.01963 L827.098,-3.2129 L827.098,-3.2129 L828.617,-2.40617 L828.617,-2.40617 L831.133,-0.905993 L831.133,-0.905993 L833.648,0.594187 L833.648,0.594187 L836.164,2.09437 L836.164,2.09437 L838.679,3.59455 L838.679,3.59455 L841.238,4.36635 L841.238,4.36635 L843.797,5.13816 L843.797,5.13816 L846.356,5.90997 L846.356,5.90997 L848.916,6.68178 L848.916,6.68178 L850.262,5.97607 L850.262,5.97607 L851.608,5.27037 L851.608,5.27037 L852.954,4.56466 L852.954,4.56466 L854.3,3.85895 L854.3,3.85895 L854.622,1.94146 L854.622,1.94146 L854.944,0.0239758 L854.944,0.0239758 L855.267,-1.89351 L855.267,-1.89351 L855.589,-3.811 L855.589,-3.811 L854.817,-5.45187 L854.817,-5.45187 L854.045,-7.09275 L854.045,-7.09275 L853.272,-8.73362 L853.272,-8.73362 L852.5,-10.3745 L852.5,-10.3745 L849.492,-11.612 L849.492,-11.612 L846.485,-12.8494 L846.485,-12.8494 L843.477,-14.0869 L843.477,-14.0869 L840.469,-15.3244 L840.469,-15.3244 L837.73,-16.6742 L837.73,-16.6742 L834.99,-18.0239 L834.99,-18.0239 L832.251,-19.3737 L832.251,-19.3737 L829.511,-20.7235 L829.511,-20.7235 L828.101,-21.0853 L828.101,-21.0853 L826.691,-21.4472 L826.691,-21.4472 L825.281,-21.809 L825.281,-21.809 L823.871,-22.1709 L823.871,-22.1709 L822.691,-21.9942 L822.691,-21.9942 L821.512,-21.8175 L821.512,-21.8175 L820.333,-21.6408 L820.333,-21.6408 L819.153,-21.4641 L819.153,-21.4641 L818.129,-21.0455 L818.129,-21.0455 L817.105,-20.6269 L817.105,-20.6269 L816.081,-20.2084 L816.081,-20.2084 L815.058,-19.7898"/>
   <path vector-effect="none" fill-rule="evenodd" d=""/>
   <path vector-effect="none" fill-rule="evenodd" d=""/>
   <path vector-effect="none" fill-rule="evenodd" d=""/>
   <path vector-effect="none" fill-rule="evenodd" d=""/>
   <path vector-effect="none" fill-rule="evenodd" d="M792.126,-36.8508 L792.126,-36.8508 L793.527,-38.047 L793.527,-38.047 L794.929,-39.2432 L794.929,-39.2432 L796.33,-40.4394 L796.33,-40.4394 L797.731,-41.6356 L797.731,-41.6356 L795.502,-41.1535 L795.502,-41.1535 L793.272,-40.6715 L793.272,-40.6715 L791.043,-40.1895 L791.043,-40.1895 L788.814,-39.7074 L788.814,-39.7074 L787.412,-38.5112 L787.412,-38.5112 L786.011,-37.315 L786.011,-37.315 L784.61,-36.1188 L784.61,-36.1188 L783.208,-34.9226 L783.208,-34.9226 L783.327,-34.3679 L783.327,-34.3679 L783.446,-33.8133 L783.446,-33.8133 L783.565,-33.2587 L783.565,-33.2587 L783.683,-32.704 L783.683,-32.704 L785.794,-33.7407 L785.794,-33.7407 L787.905,-34.7774 L787.905,-34.7774 L790.015,-35.8141 L790.015,-35.8141 L792.126,-36.8508"/>
  </g>
  <g stroke-linecap="square" font-style="normal" font-family="MS Shell Dlg 2" font-weight="400" stroke-opacity="0.490196" stroke="#232323" stroke-linejoin="bevel" stroke-width="3.07087" fill="#f6e1b9" fill-opacity="1" transform="matrix(0.999452,0,0,0.999452,0,0)" font-size="34.375">
   <path vector-effect="none" fill-rule="evenodd" d="M1246.95,863.442 L1247.99,863.93 L1248.1,863.732 L1248.72,864.074 L1248.89,863.828 L1251.42,865.163 L1251.28,865.422 L1251.44,865.513 L1251.55,865.295 L1251.83,865.428 L1251.73,865.631 L1251.86,865.698 L1251.26,866.826 L1249.01,871.822 L1247.31,874.27 L1246.18,877.063 L1246.17,878.835 L1246.51,882.584 L1244.9,882.498 L1243.69,883.152 L1241.95,883.587 L1245.48,895.519 L1250.01,901.097 L1259,902.852 L1264.57,899.656 L1270.14,896.972 L1274.73,898.361 L1275.69,910.838 L1279.56,916.696 L1282.1,921.244 L1282.07,924.002 L1282.12,924.219 L1280.91,926.745 L1278.81,930.09 L1274.9,931.878 L1266.11,937.893 L1242.65,953.829 L1254.46,967.274 L1257.3,976.92 L1255.67,983.542 L1244.64,996.173 L1233.13,1014.52 L1234.99,1021.09 L1240.28,1023.62 L1246.41,1025.13 L1280.28,1013.11 L1288.28,1020.16 L1284.05,1038.1 L1280.04,1046.95 L1278.36,1057.36 L1288.75,1062.2 L1292.61,1057.34 L1320.63,1038.38 L1339.37,1038.93 L1351.86,1047.78 L1355.04,1064.18 L1346.35,1078.49 L1325.88,1091.63 L1321.07,1099.54 L1324,1107.6 L1339.65,1135.36 L1345.93,1144.58 L1350.5,1148.35 L1362.87,1150.56 L1372.9,1149.14 L1379.16,1147.11 L1386.86,1142.51 L1392.94,1137.05 L1402.83,1129.52 L1414.99,1128 L1422.85,1132.59 L1429.9,1143.18 L1433.65,1152.95 L1439.61,1168.55 L1443.39,1176.29 L1447.45,1182.14 L1450.77,1186.24 L1453.18,1188.57 L1457.82,1190.72 L1460.05,1191.35 L1462.29,1191.98 L1466.81,1192.65 L1471.67,1192.91 L1478.77,1192.95 L1485.91,1192.97 L1489.57,1193.56 L1492.64,1194.74 L1495.66,1196.61 L1498.17,1199.46 L1499.79,1202.28 L1500.5,1205.45 L1500.33,1214.36 L1504.66,1214.46 L1522.54,1231 L1527.34,1235.44 L1552.14,1207.8 L1505.6,1165.33 L1511.99,1157.88 L1503.82,1152.03 L1508.55,1148.06 L1509.03,1146.95 L1508.49,1143.9 L1507.1,1140.36 L1504.74,1138.95 L1504.38,1134.7 L1504.23,1134.18 L1503.66,1133.47 L1502.17,1132.72 L1500.47,1133.33 L1499.02,1132.3 L1495.81,1132.73 L1494.32,1133.64 L1492.65,1133.03 L1491.48,1134.35 L1482.69,1144.61 L1462.27,1125.96 L1466.24,1107.59 L1467.03,1108 L1469.05,1103.48 L1473.48,1095.4 L1478.74,1083.79 L1481.91,1071.06 L1486.26,1069.84 L1488.13,1057.17 L1494.02,1055.29 L1501.8,1053.15 L1502.03,1045.83 L1501.31,1045.9 L1490.04,1047.1 L1488.24,1047.59 L1488.45,1045.04 L1488.75,1043.3 L1488.4,1041.88 L1487.37,1039.92 L1487.74,1038.26 L1487.6,1037.47 L1487.66,1036.5 L1488.52,1035.68 L1488.19,1034.49 L1487.98,1033.67 L1488.18,1032.5 L1488.02,1031.51 L1487.91,1031.46 L1485.47,1029.91 L1483.13,1027.45 L1482.01,1026.15 L1480.96,1024.81 L1479.94,1023.99 L1474.09,1019.93 L1434.26,993.796 L1433.19,992.728 L1433.82,987.348 L1434.24,984.182 L1423.84,986.387 L1419.46,981.589 L1418.93,981.046 L1418.61,980.551 L1418.38,980.109 L1418.25,979.732 L1418.13,979.354 L1418.12,978.531 L1418.16,977.956 L1418.26,977.134 L1418.98,970.897 L1419.46,966.987 L1420.11,961.987 L1420.74,956.994 L1421.72,950.823 L1422.65,941.909 L1421.83,941.178 L1419.98,939.79 L1414.7,935.852 L1420.91,923.5 L1421.12,922.811 L1420.45,922.359 L1422.31,920.222 L1413.06,913.325 L1405.33,907.615 L1370.4,881.378 L1364.27,876.714 L1336.48,856.049 L1335.37,857.534 L1333.69,856.321 L1332.75,855.568 L1331.71,857.202 L1329.65,860.356 L1330.26,860.742 L1330.32,860.818 L1330.31,860.911 L1331.43,861.192 L1332.65,861.957 L1332.08,862.551 L1332.1,862.569 L1331.39,863.506 L1330.3,865.143 L1329.94,865.757 L1329.4,866.608 L1328.52,868.027 L1328.14,868.627 L1327.5,869.519 L1326.92,869.073 L1326.19,869.983 L1326.27,870.471 L1326.35,871.036 L1325.65,872.066 L1323.95,870.901 L1323.33,871.779 L1322.42,873.182 L1322.3,873.182 L1321.58,872.764 L1320.37,874.759 L1320.16,875.054 L1319.54,874.552 L1316.82,873.352 L1314.88,872.517 L1312.58,871.782 L1310.58,871.118 L1309.06,870.638 L1306.51,869.777 L1306.76,868.892 L1299.79,867.074 L1299.53,868.262 L1298.07,867.74 L1297.88,867.634 L1293.66,866.626 L1292.91,866.399 L1286.81,875.566 L1284.44,875.302 L1283.25,877.72 L1282.29,879.844 L1280.34,878.968 L1281.76,876.328 L1282.39,875.049 L1282.82,874.369 L1280.69,874.189 L1279.77,874.039 L1279.85,872.796 L1279.63,872.1 L1279.42,871.718 L1278.94,871.35 L1278.33,871.072 L1277.8,870.972 L1277.41,871.012 L1276.73,871.334 L1276.34,871.882 L1276.06,871.944 L1275.56,872.898 L1275.49,873.17 L1275.6,873.768 L1275.6,874.132 L1275.21,874.292 L1274.53,874.221 L1267.36,873.405 L1266.21,872.875 L1264.12,872.104 L1262.25,871.167 L1262.36,870.955 L1261.47,870.484 L1256.8,868.184 L1256.56,868.15 L1255.18,867.485 L1255.37,867.092 L1257.71,862.298 L1258.02,862.205 L1255.46,861.106 L1255,862.081 L1251.25,860.184 L1249.38,859.222 L1246.95,863.442"/>
  </g>
  <g stroke-linecap="square" font-style="normal" font-family="MS Shell Dlg 2" font-weight="400" stroke-opacity="1" stroke="#db8606" stroke-linejoin="bevel" stroke-width="7.79528" fill="none" transform="matrix(0.999452,0,0,0.999452,0,0)" font-size="34.375">
   <path vector-effect="none" fill-rule="evenodd" d="M1401.92,908.718 L1402.35,908.142 L1402.76,907.561 L1403.81,908.325 L1404.47,908.805 L1404.95,909.161 L1405.59,909.624 L1405.88,909.846 L1409.34,912.393 L1411.56,913.963 L1411.7,914.07 L1411.86,914.481 L1411.82,914.813 L1411.58,915.05 L1411.38,915.166 L1407.84,918.059 L1405.66,919.844 L1404.99,920.379 L1402.75,922.197 L1399.31,924.944 L1399.05,925.152 L1398.71,925.43 L1397.42,926.522 L1394.64,928.864 L1394.41,929.059 L1392.98,930.263 L1392.08,931.289 L1385.76,936.524 L1384.46,937.236 L1384.2,937.372 L1383.83,937.578 L1383.51,937.751 L1383.22,937.891 L1379.53,939.64 L1375.69,941.483 L1375.45,941.598 L1374.71,941.956 L1374.48,942.062 L1373.62,942.477 L1373.41,942.576 L1372.15,943.179 L1368.15,945.101 L1367.95,945.199 L1367.73,945.298 L1366.61,945.84 L1366.15,946.062 L1362.49,947.815 L1358.68,949.642 L1358.98,950.282 L1361.36,955.255 L1361.94,956.527 L1365.06,964.089 L1365.66,965.58 L1365.86,966.016 L1366.19,966.724 L1367.32,968.955 L1369.14,972.594 L1371.73,977.596 L1375,984.266 L1375.41,985.232 L1376.8,988.646 L1377.63,990.549 L1377.82,991.406 L1377.88,992.309 L1377.83,993.109 L1377.75,993.77 L1377.22,996.258 L1377.11,996.581 L1376.87,996.86 L1376.31,996.929 L1375.72,997.078 L1375.21,997.379 L1374.88,997.758 L1374.53,998.327 L1374.28,998.909 L1374.19,999.553 L1374.21,1000.01 L1374.39,1000.63 L1374.54,1000.91 L1374.96,1001.4 L1375.69,1001.97 L1376.1,1002.15 L1376.58,1002.24 L1377.04,1002.29 L1377.87,1002.3 L1378.48,1004.05 L1378.86,1005.64 L1378.93,1006.47 L1378.94,1007.06 L1378.83,1007.66 L1378.62,1008.17 L1374.55,1015.97 L1374.2,1016.5 L1373.93,1016.81 L1373.63,1017.12 L1372.72,1017.58 L1371.67,1018.12 L1370.75,1018.6 L1370.12,1018.94 L1369.82,1019.12 L1369.56,1019.32 L1369.31,1019.56 L1369.08,1019.81 L1368.66,1020.38 L1368.45,1020.73 L1368.26,1021.1 L1367.82,1022.33 L1367.47,1023.15 L1367.37,1023.29 L1367.22,1023.51 L1366.89,1023.84 L1366.24,1024.27 L1360.23,1027.24 L1359.02,1027.79 L1357.43,1028.54 L1356.92,1028.79 L1356.39,1029.06 L1355.15,1029.68 L1354.25,1030.08 L1353.69,1030.32 L1353.79,1030.58 L1354.04,1031.26 L1354.47,1032.59 L1354.76,1033.58 L1354.91,1034.27 L1354.96,1034.51 L1355.08,1035.55 L1354.49,1037.22 L1353.93,1039.01 L1353.34,1041.23 L1353.23,1041.6 L1353.23,1041.72 L1353.29,1042.19 L1354.24,1045.56 L1355.08,1048.98 L1357.29,1059.24 L1357.4,1060.24 L1357.47,1061.28 L1357.39,1062.55 L1357.21,1063.74 L1354.57,1071.99 L1350.26,1078.95 L1347.2,1082.84 L1344.61,1085.11 L1344.08,1085.54 L1343.15,1086.09 L1342.92,1086.28 L1342.59,1086.66 L1342.71,1086.93 L1342.8,1087.23 L1342.88,1087.35 L1343.09,1087.59 L1343.37,1087.79 L1343.86,1088.3 L1345.57,1089.87 L1352.37,1095.69 L1361.37,1090.89 L1365.11,1086.62 L1359.38,1081.42 L1358.96,1081.04 L1358.75,1080.86 L1358.66,1080.48 L1358.89,1080.22 L1359.4,1079.65 L1357.67,1078.14"/>
  </g>
  <g stroke-linecap="square" font-style="normal" font-family="MS Shell Dlg 2" font-weight="400" stroke-opacity="1" stroke="#89339e" stroke-linejoin="bevel" stroke-width="21.9685" fill="none" transform="matrix(0.999452,0,0,0.999452,0,0)" font-size="34.375">
   <path vector-effect="none" fill-rule="evenodd" d="M763.322,604.308 L760.522,602.606 L759.314,601.819 L758.109,600.906 L752.281,595.869 L740.76,585.912 L739.462,584.957 L738.112,584.131 L735.645,582.667 L734.33,581.835 L733.206,580.917 L732.348,580.048 L731.599,579.127 L730.945,578.144 L730.319,576.96 L729.748,575.484 L729.353,573.856 L729.188,572.383 L729.202,570.864 L729.474,569.014 L729.911,567.515 L730.489,566.167 L731.27,564.824 L741.249,550.494 L742.213,549.108 L745.838,543.73 L747.663,540.878 L749.72,536.401 L752.051,529.328 L754.617,520.283 L756.777,511.271 L756.968,510.251 L757.074,509.222 L757.135,507.893 L757.03,506.243 L756.829,504.809 L756.46,502.919 L756.045,501.811 L755.595,500.891 L753.239,497.61 L747.127,489.902 L744.46,486.792 L741.63,483.779 L730.391,472.174 L727.62,469.236 L724.862,466.208 L722.686,463.986 L710.409,451.983 L709.458,451.218 L708.408,450.492 L707.234,449.804 L699.715,446.153 L698.334,445.402 L697.08,444.59 L696.061,443.829 L691.589,439.964 L690.387,438.972 L689.037,438.005 L681.086,433.092 L676.892,430.687 L675.546,429.893 L671.364,427.323 L667.963,425.004 L665.027,423.193 L660.484,420.393 L659.34,419.688 L652.082,415.213 L622.525,396.787 L621.778,396.387 L620.25,395.556 L618.711,394.96 L617.174,394.575 L615.698,394.383 L614.387,394.353 L613.032,394.46 L611.463,394.764 L609.85,395.292 L608.336,396.014 L604.54,398.144 L602.581,399.539 L600.83,401.298 L599.493,403.314 L598.406,405.504 L591.577,421.965 L590.601,423.796 L577.9,444.589 L576.951,445.772 L575.704,446.965 L560.825,459.143 L559.534,459.979 L558.164,460.681 L556.375,461.354 L554.581,461.785 L552.753,461.996 L550.859,461.98 L549.026,461.738 L533.256,457.721 L518.161,453.973 L499.417,451.021 L487.325,447.87 L486.327,447.597 L479.039,445.728 L464.759,442.372 L444.328,441.714 L443.495,441.672 L442.765,441.599 L441.996,441.483 L440.909,441.251 L439.844,440.892 L438.723,440.477 L437.692,439.991 L436.234,439.158 L428.96,434.191 L427.594,433.254 L421.168,428.794 L402.462,415.898 L399.23,413.56 L397.822,412.362 L395.035,409.671 L392.532,407.162 L389.694,404.397 L383.376,398.927 L382.869,398.554 L379.639,396.295 L378.062,394.965 L376.52,393.455 L374.45,391.194 L372.818,389.496 L371.018,387.91 L369.303,386.622 L353.084,376.278 L349.39,374.18 L325.544,359.037 L320.981,355.368 L311.756,346.786 L308.733,344.623 L305.345,343.089 L301.723,342.245 L299.867,342.092 L288.799,341.798 L286.215,341.496 L283.738,340.696 L281.466,339.43 L279.485,337.746 L277.871,335.708 L269.288,317.525 L268.169,315.343 L264.493,309.066 L259.305,298.708 L257.971,295.327 L255.697,289.257 L250.428,275.321 L248.691,272.271 L246.894,270.007 L244.874,268.027 L242.594,266.247 L226.876,256.098 L225.121,254.574 L223.573,252.644 L222.417,250.647 L221.622,248.779 L221.133,247.32 L220.184,243.801 L219.417,240.717 L218.703,237.988 L217.851,234.092 L217.344,232.295 L216.641,230.716 L215.739,229.264 L214.698,228.002 L213.241,226.68 L207.479,222.179 L198.503,214.57 L196.378,213.09 L194.023,211.839 L165.959,199.744 L164.518,199.199 L163.015,198.765 L154.173,196.578 L151.499,196.136 L148.676,196.015 L146.072,196.216 L143.041,196.839 L139.956,197.94 L137.314,199.317 L134.798,201.092 L117.632,215.456 L115.855,216.646 L113.972,217.578 L111.866,218.29 L109.55,218.725 L106.957,218.811 L104.424,218.492 L102.472,217.979 L87.0453,212.982 L85.2151,212.493 L82.961,212.059 L77.7684,211.438 L75.9635,211.269 L74.1793,211.228 L69.9172,211.255 L67.1218,211.151 L64.2316,210.656 L61.277,209.713 L58.6856,208.468 L56.6984,207.198 L54.502,205.387 L52.95,203.764 L51.5587,201.965 L47.1662,194.83 L42.8072,187.88 L38.3105,180.373 L37.3152,178.711 L30.8731,167.956 L29.8981,166.505 L28.6374,165.176 L27.2828,164.029 L25.8929,163.104 L24.452,162.385 L22.9211,161.773 L20.9703,161.212 L19.3617,160.921 L17.6544,160.77 L11.8085,160.503 L11.1572,160.405 L10.5019,160.249 L9.8587,160.08 L9.21297,159.839 L6.69003,158.785 L2.91886,157.187 L-3.4065,154.526 L-32.4603,142.417 L-33.3479,142.074 L-34.2373,141.759 L-35.14,141.485 L-36.0491,141.26 L-37.3166,141.028 L-38.5712,140.88 L-39.8401,140.827 L-41.0694,140.864 L-42.0689,140.944 L-42.9065,141.043 L-43.7629,141.176 L-53.7046,143.139 L-54.326,143.236 L-55.0252,143.313 L-55.7246,143.357 L-56.3848,143.368 L-57.114,143.348 L-57.8457,143.292 L-58.896,143.148 L-59.9717,142.921 L-61.0261,142.617 L-70.6967,139.325 L-73.1732,137.981 L-74.8004,136.476 L-76.1086,134.674 L-77.3144,132.175 L-78.1328,129.84 L-78.7042,127.549 L-79.1333,125.197 L-80.7228,112.092 L-81.3575,108.877 L-82.4611,105.544 L-84.1071,102.493 L-96.0572,86.6184 L-96.8339,85.7682 L-108.686,74.5065 L-118.493,65.1082 L-174.588,11.0459"/>
  </g>
  <g stroke-linecap="square" font-style="normal" font-family="MS Shell Dlg 2" font-weight="400" stroke-opacity="1" stroke="#db8606" stroke-linejoin="bevel" stroke-width="7.79528" fill="none" transform="matrix(0.999452,0,0,0.999452,0,0)" font-size="34.375">
   <path vector-effect="none" fill-rule="evenodd" d="M759.319,600.361 L759.794,599.885 L760.175,599.743 L760.434,599.794 L760.579,599.822 L761.066,600.023 L768.013,606.016 L769.684,607.397 L774.647,611.709 L782.19,618.352 L784.998,620.736 L791.497,626.388 L796.033,630.377 L798.479,632.347 L800.711,634.245 L807.324,639.907 L817.541,648.69 L820.227,650.992 L827.601,657.254 L831.95,660.932 L833.251,661.989 L837.532,665.627 L840.441,668.071 L844.143,671.535 L847.419,674.908 L850.648,678.774 L853.627,682.972 L861.94,694.082 L865.677,699.038 L870.136,704.95 L876.721,713.613 L882.102,720.689 L883.582,722.705 L889.078,730.183 L891.298,733.206 L896.542,740.128 L899.16,743.586 L900.07,744.848 L901.681,747.031 L910.015,758.143 L911.12,759.593 L912.009,760.71 L913.094,762.042 L914.09,763.195 L915.119,764.294 L917.069,766.17 L918.419,767.363 L920.181,768.743 L921.027,769.392 L922.171,770.223 L923.429,771.064 L926.145,772.56 L928.685,773.914 L933.945,776.683 L935.451,777.532 L937.92,778.864 L939.498,779.95 L945.988,783.699 L947.278,784.363 L949.548,785.3 L952.135,786.515 L954.933,788.189 L956.799,789.506 L958.4,790.702 L959.973,791.965 L964.63,795.799 L967.036,797.846 L968.818,799.672 L969.807,800.821 L972.225,803.631 L974.848,806.654 L978.024,810.313 L981.898,814.86 L985.247,818.939 L989.135,823.684 L993.748,829.51 L993.938,829.736 L995.096,831.237 L1000.7,838.253 L1003.31,841.567 L1003.74,842.087 L1006.65,845.696 L1008.4,847.837 L1010.13,849.852 L1011.57,851.298 L1017.61,857.381 L1019.36,859.092 L1020.97,860.608 L1021.52,861.206 L1022.04,861.854 L1022.56,862.667 L1022.92,863.384 L1023.03,863.643 L1023.15,863.906 L1024.42,867.764 L1025.55,871.43 L1027.05,876.573 L1028.83,882.71 L1028.98,883.218 L1029.83,885.595 L1030.89,888.729 L1033.03,894.614 L1034.34,898.014 L1034.81,899.104 L1035.59,900.759 L1038.54,906.011 L1038.87,906.509 L1040.66,909.005 L1041.87,910.573 L1043.3,912.179 L1043.74,912.598 L1044.23,913.069 L1045.54,914.298 L1046.88,915.598 L1049.8,918.309 L1054.56,922.871 L1056.17,924.369 L1060.11,928.156 L1062.52,930.395 L1068.76,936.323 L1075.79,942.897 L1077.09,943.94 L1079.12,945.314 L1084.45,948.606 L1088.04,950.757 L1088.57,951.076 L1089.63,951.614 L1092.48,953.113 L1093.59,953.828 L1094.76,954.578 L1095.89,955.404 L1096.79,956.2 L1097.22,956.679 L1097.34,956.828 L1097.98,957.692 L1098.89,959.1 L1100.98,962.801 L1101.64,964.066 L1103.62,968.376 L1106.72,975.627 L1107.69,977.988 L1107.81,978.23 L1107.96,978.59 L1108.3,979.278 L1108.7,979.983 L1109.22,980.783 L1109.92,981.678 L1112.88,985.074 L1138.2,1013.31 L1139.04,1014.24 L1143.79,1019.52 L1145.78,1021.81 L1146.74,1022.96 L1147.72,1024.21 L1149,1025.91 L1150.52,1028.13 L1151.61,1029.81 L1151.83,1030.16 L1154.36,1034.17 L1154.85,1034.85 L1155.26,1035.35 L1155.74,1035.92 L1156.44,1036.64 L1158.77,1038.55 L1166.39,1044.76 L1167.49,1045.56 L1168.13,1046.2 L1168.63,1046.74 L1169.16,1047.46 L1169.41,1047.94 L1169.98,1049.55 L1170.23,1050.1 L1170.62,1050.76 L1171.05,1051.3 L1171.68,1051.88 L1172.23,1052.29 L1172.92,1052.72 L1176.71,1054.99 L1177.79,1055.55 L1178.56,1055.86 L1179.29,1056.05 L1180.12,1056.18 L1180.89,1056.23 L1181.48,1056.24 L1182.08,1056.18 L1183.28,1055.91 L1183.98,1055.65 L1184.64,1055.32 L1185.37,1054.85 L1185.98,1054.36 L1186.58,1053.79 L1187.38,1052.77 L1188.05,1051.87 L1189.51,1049.76 L1190.42,1048.32 L1192.03,1046.11 L1193.43,1044.24 L1194.73,1042.7 L1195.6,1041.47 L1198.43,1037.61 L1200.15,1035.2 L1200.99,1034.17 L1202.8,1032.09 L1204.79,1030.02 L1206.33,1028.63 L1208.47,1026.89 L1210.71,1025.3 L1212.57,1024.13 L1214.32,1023.13 L1216.21,1022.14 L1217.92,1021.34 L1219.94,1020.51 L1221.94,1019.8 L1223.96,1019.2 L1225.55,1018.79 L1235.14,1016.67 L1245.01,1014.72 L1248.43,1014.02 L1251.87,1013.24 L1253.86,1012.73 L1255.92,1012.13 L1259.88,1010.92 L1264.08,1009.42 L1270.84,1006.62 L1273.03,1005.88 L1275.47,1005.23 L1278.35,1004.6 L1280.94,1004.26 L1284.6,1004.09 L1287.36,1004.11 L1289.86,1004.34 L1292.22,1004.68 L1295.15,1005.24 L1298.69,1006.34 L1301.64,1007.48 L1304.3,1008.78 L1307.63,1010.74 L1309.55,1012.1 L1311.6,1013.61 L1313.32,1015.14 L1315.19,1016.95 L1317.54,1019.37 L1319.62,1021.22 L1321.28,1022.47 L1323.59,1023.97 L1325.15,1024.88 L1326.77,1025.69 L1327.93,1026.17 L1329.98,1026.97 L1332.79,1027.83 L1334.89,1028.31 L1338.23,1029.12 L1339.54,1029.54 L1342.18,1030.68 L1343.32,1031.11 L1344.31,1031.37 L1344.78,1031.42 L1346.22,1031.41 L1347.41,1031.3 L1349.52,1031.05 L1350.69,1030.92 L1350.78,1030.91 L1353.15,1030.5 L1353.41,1030.43 L1353.69,1030.32 L1353.79,1030.58 L1354.04,1031.26 L1354.47,1032.59 L1354.76,1033.58 L1354.91,1034.27 L1354.96,1034.51 L1355.08,1035.55 L1354.49,1037.22 L1353.93,1039.01 L1353.34,1041.23 L1353.23,1041.6 L1353.23,1041.72 L1353.29,1042.19 L1354.24,1045.56 L1355.08,1048.98 L1357.29,1059.24 L1357.4,1060.24 L1357.47,1061.28 L1357.39,1062.55 L1357.21,1063.74 L1354.57,1071.99 L1350.26,1078.95 L1347.2,1082.84 L1344.61,1085.11 L1344.08,1085.54 L1343.15,1086.09 L1342.92,1086.28 L1342.59,1086.66 L1342.71,1086.93 L1342.8,1087.23 L1342.88,1087.35 L1343.09,1087.59 L1343.37,1087.79 L1343.86,1088.3 L1345.57,1089.87 L1352.37,1095.69 L1361.37,1090.89 L1365.11,1086.62 L1359.38,1081.42 L1358.96,1081.04 L1358.75,1080.86 L1358.66,1080.48 L1358.89,1080.22 L1359.4,1079.65 L1357.69,1078.16"/>
  </g>
  <g stroke-linecap="round" font-style="normal" font-family="MS Shell Dlg 2" font-weight="400" stroke-opacity="1" stroke="#000000" stroke-linejoin="round" stroke-width="4.72441" fill="none" transform="matrix(0.999452,0,0,0.999452,0,0)" font-size="34.375">
   <path vector-effect="none" fill-rule="evenodd" d="M277.126,167.945 L283.276,166.053 L284.426,165.679 L285.357,165.322 L286.599,164.731 L288.067,163.887 L289.271,163.198 L290.723,162.185 L292.042,161.401 L293.157,160.495 L294.454,159.18 L295.713,157.939 L296.629,157.004 L297.923,155.676 L299.33,154.291 L300.198,153.368 L300.416,153.157 L301.126,152.442 L302.342,151.374 L303.701,150.354 L304.83,149.605 L307.47,147.961 L316.9,143.278 L322.984,140.254 L329.772,136.7 L331.743,135.738 L333.686,134.894 L335.248,134.296 L337.001,133.773 L338.796,133.318 L340.858,132.839 L343.252,132.349 L345.25,132.05 L346.477,131.981 L348.666,131.933 L350.376,131.962 L352.753,131.834 L353.988,131.739 L357.917,131.59 L360.089,131.56 L361.888,131.636 L364.831,131.746 L371.165,131.667 L372.357,131.685 L376.865,131.816 L379.577,131.964 L381.076,132.089 L382.837,132.409 L384.489,132.769 L386.442,133.345 L388.11,133.949 L390.164,134.776 L391.817,135.553 L393.512,136.461 L394.743,137.197 L395.89,137.964 L397.022,138.794 L398.286,139.813 L399.58,141.013 L400.867,142.394 L402.267,144.043 L403.605,145.779 L404.731,147.574 L405.871,149.598 L410.471,158.383 L411.427,160.276 L412.049,161.94 L417.03,173.805 L417.879,176.16 L419.387,180.723 L420.279,183.074 L421.348,185.429 L422.59,187.909 L425.415,193.555 L426.501,195.876 L427.204,197.546 L427.793,199.352 L428.218,201.197 L428.413,203.089 L428.46,205.101 L428.396,206.878 L428.063,213.047 L427.921,214.431 L427.653,215.851 L427.161,217.62 L425.539,222.218 L425.099,223.512 L422.71,230.09 L421.922,232.356 L421.302,234.388 L420.758,236.57 L420.364,238.708 L420.074,240.781 L419.908,242.952 L419.922,244.858 L420.056,247.153 L420.391,249.473 L420.854,251.669 L421.422,253.61 L422.179,255.61 L423.176,257.723 L423.231,257.838 L424.616,260.215 L425.858,262.08 L426.45,262.829 L427.205,263.698 L430.984,267.586 L432.262,268.807 L433.594,269.923 L435.52,271.312 L437.328,272.399 L441.141,274.361 L454.554,280.963 L457.184,282.233 L463.084,285.022 L466.042,286.399 L468.696,287.665 L470.663,288.94 L472.729,290.39 L474.738,292.108 L476.359,293.815 L477.818,295.549 L479.593,297.743 L481.394,300.423 L484.431,305.358 L485.94,307.514 L487.729,309.683 L489.522,311.499 L491.573,313.289 L493.81,314.914 L496.379,316.444 L499.109,317.754 L501.796,318.813 L504.642,319.746 L507.91,320.635 L518.734,323.332 L519.891,323.652 L521.966,324.482 L523.074,324.995 L524.203,325.592 L525.377,326.304 L526.488,327.074 L527.676,328.061 L531.248,331.222 L533.155,333.018 L536.077,335.982 L536.902,336.76 L539.5,339.129 L542.861,342.851 L543.803,343.753 L545.488,345.334 L547.339,347.284 L551.715,351.458 L553.636,353.229 L556.025,355.201 L558.963,357.078 L563.483,359.725 L579.967,369.965 L594.648,378.954 L597.956,381.035 L605.146,385.75 L614.697,391.626 L624.066,397.124 L632.899,402.629 L641.214,407.745 L652.214,414.643 L661.542,420.394 L677.028,430.018 L687.003,436.175 L692.564,439.578 L710.112,450.451 L712.478,451.969 L716.227,454.514 L728.577,462.133 L735.964,466.774 L738.495,468.531 L742.433,471.454 L745.815,474.182 L748.882,476.74 L753.444,480.802 L760.409,487.276 L767.554,493.833 L780.972,506.257 L786.177,511.273 L798.002,522.853 L799.745,524.432 L801.777,526.011 L806.082,528.462 L807.914,529.731 L809.397,530.905 L809.738,531.18 L810.685,531.946 L812.963,534.035 L819.104,540.809 L821.749,543.528 L827.504,549.137 L830.157,551.653 L837.511,558.455 L849.589,569.503 L852.493,572.133 L855.971,575.366 L857.388,576.45 L859.989,578.839 L860.835,579.649 L861.486,580.232 L866.243,584.555 L867.562,585.781 L869.071,586.888 L871.008,588.634 L873.122,590.669 L875.155,592.547 L883.685,600.503 L888.667,604.829 L889.627,605.737 L890.275,606.346 L894.348,610.186 L902.766,617.97 L905.77,620.689 L912.033,626.488 L912.828,627.195 L914.707,629.205 L937.967,650.631 L943.127,655.333 L943.727,655.793 L944.493,656.391 L945.831,657.376 L947.841,658.659 L949.618,659.937 L951.046,660.975 L952.708,662.163 L954.16,662.999 L959.049,666.453 L962.405,668.59 L967.107,671.51 L971.718,674.037 L975.82,676.012 L982.752,679.277 L988.926,681.798 L997.59,684.844 L1012.63,689.923 L1015.36,690.781 L1019.41,692.307 L1029.35,695.585 L1046.8,701.561 L1054.05,703.934 L1074.71,710.341 L1086.68,714.231 L1097.22,717.775 L1100.28,718.754 L1102.67,719.623 L1104.1,720.191 L1106.62,721.289 L1111.05,723.329 L1115.83,725.592 L1118.93,727.234 L1134.33,735.754 L1161.55,751.021 L1164.98,752.775 L1170.26,755.883 L1175.36,758.621 L1180.23,761.39 L1184.64,763.819 L1189.38,766.502 L1194.19,769.151 L1200.49,772.626 L1206.58,775.963 L1212.56,779.298 L1219.32,782.795 L1223.24,784.981 L1233.31,790.701 L1242.02,794.851 L1246.76,797.486 L1257.55,803.34 L1260.93,805.252 L1264.98,807.645 L1265.75,808.414 L1267.8,809.626 L1286.12,819.953 L1296.34,826.286 L1299.02,828.327 L1300.15,829.4 L1303.5,831.909 L1309.24,836.135 L1322.92,846.199 L1335.97,855.934 L1348.58,865.224 L1357.88,872.077 L1385.23,892.613 L1397.47,901.827 L1404.47,906.694 L1419.03,917.679 L1425.88,922.606 L1457.1,945.9 L1467.41,953.45 L1512.99,987.277 L1522.28,994.015 L1537.4,1005.47 L1555.97,1018.91 L1568.24,1028.04 L1581.99,1038.2 L1592.63,1046.49 L1594.55,1048 L1596.5,1049.44 L1600.11,1051.53 L1601.34,1052.37 L1602.64,1053.22 L1604.26,1054.31 L1610.24,1058.37 L1621.97,1066.14 L1626.72,1069.16 L1631.41,1072.2 L1638.65,1076.99 L1640.11,1078.07 L1640.96,1078.57 L1643.55,1080.33 L1645.84,1081.71 L1649.77,1084.2 L1654.51,1087.32 L1656.9,1088.89 L1660.98,1091.53 L1661.83,1092.08 L1669.88,1097.33 L1672.75,1099.18 L1680.01,1103.86 L1686.93,1108.35 L1703.2,1118.97 L1719.23,1129.46 L1735.44,1139.95 L1749.19,1148.92 L1753.83,1151.95 L1756.21,1153.52 L1766.1,1160.33 L1767.23,1161.07 L1775.53,1166.45 L1783.73,1171.89 L1790.4,1176.53 L1794.22,1179.6 L1795.23,1180.47 L1801.04,1185.5 L1801.43,1185.87 L1806.98,1191.12 L1810.39,1194.74 L1812.55,1197.04 L1819.04,1204.55 L1819.95,1205.66 L1839.3,1228.57 L1876.24,1272.27 L1895.63,1295.22 L1900.44,1300.91 L1904.95,1306.36"/>
  </g>
  <g stroke-linecap="square" font-style="normal" font-family="MS Shell Dlg 2" font-weight="400" stroke-opacity="1" stroke="#000000" stroke-linejoin="bevel" stroke-width="2.3622" fill="none" transform="matrix(0.999452,0,0,0.999452,0,0)" font-size="34.375">
   <path vector-effect="none" fill-rule="evenodd" d="M270.063,155.657 L284.19,180.232"/>
   <path vector-effect="none" fill-rule="evenodd" d="M298.37,136.936 L313.992,160.59"/>
   <path vector-effect="none" fill-rule="evenodd" d="M334.489,119.789 L341.679,147.209"/>
   <path vector-effect="none" fill-rule="evenodd" d="M375.156,117.657 L371.543,145.772"/>
   <path vector-effect="none" fill-rule="evenodd" d="M414.723,137.107 L393.117,155.456"/>
   <path vector-effect="none" fill-rule="evenodd" d="M431.683,172.91 L405.581,183.966"/>
   <path vector-effect="none" fill-rule="evenodd" d="M442.288,212.467 L413.968,211.231"/>
   <path vector-effect="none" fill-rule="evenodd" d="M434.075,244.453 L405.909,247.653"/>
   <path vector-effect="none" fill-rule="evenodd" d="M447.796,261.995 L431.501,285.19"/>
   <path vector-effect="none" fill-rule="evenodd" d="M480.21,278.362 L462.443,300.45"/>
   <path vector-effect="none" fill-rule="evenodd" d="M502.679,303.724 L486.879,327.259"/>
   <path vector-effect="none" fill-rule="evenodd" d="M535.149,316.004 L520.073,340.009"/>
   <path vector-effect="none" fill-rule="evenodd" d="M561.903,341.617 L544.146,363.713"/>
   <path vector-effect="none" fill-rule="evenodd" d="M590.331,359.693 L575.356,383.761"/>
   <path vector-effect="none" fill-rule="evenodd" d="M620.341,378.458 L605.428,402.565"/>
   <path vector-effect="none" fill-rule="evenodd" d="M650.608,396.906 L635.669,420.997"/>
   <path vector-effect="none" fill-rule="evenodd" d="M680.682,415.602 L665.78,439.715"/>
   <path vector-effect="none" fill-rule="evenodd" d="M710.887,434.257 L695.868,458.298"/>
   <path vector-effect="none" fill-rule="evenodd" d="M741.476,453.518 L725.257,476.767"/>
   <path vector-effect="none" fill-rule="evenodd" d="M770.219,477.043 L751.224,498.083"/>
   <path vector-effect="none" fill-rule="evenodd" d="M796.206,501.268 L777.069,522.18"/>
   <path vector-effect="none" fill-rule="evenodd" d="M822.983,524.091 L803.992,545.135"/>
   <path vector-effect="none" fill-rule="evenodd" d="M848.322,549.136 L829.013,569.889"/>
   <path vector-effect="none" fill-rule="evenodd" d="M874.425,572.839 L855.362,593.819"/>
   <path vector-effect="none" fill-rule="evenodd" d="M900.711,596.707 L881.519,617.569"/>
   <path vector-effect="none" fill-rule="evenodd" d="M926.646,620.933 L907.361,641.708"/>
   <path vector-effect="none" fill-rule="evenodd" d="M951.92,644.213 L934.259,666.385"/>
   <path vector-effect="none" fill-rule="evenodd" d="M979.286,661.957 L966.273,687.14"/>
   <path vector-effect="none" fill-rule="evenodd" d="M1010.36,674.197 L1001.01,700.956"/>
   <path vector-effect="none" fill-rule="evenodd" d="M1043.72,685.524 L1034.75,712.414"/>
   <path vector-effect="none" fill-rule="evenodd" d="M1077.29,696.302 L1068.64,723.296"/>
   <path vector-effect="none" fill-rule="evenodd" d="M1112.07,708.206 L1100.91,734.26"/>
   <path vector-effect="none" fill-rule="evenodd" d="M1144.73,725.337 L1130.94,750.105"/>
   <path vector-effect="none" fill-rule="evenodd" d="M1175.67,742.623 L1161.86,767.378"/>
   <path vector-effect="none" fill-rule="evenodd" d="M1206.55,759.785 L1192.92,784.638"/>
   <path vector-effect="none" fill-rule="evenodd" d="M1237.47,776.769 L1224.11,801.767"/>
   <path vector-effect="none" fill-rule="evenodd" d="M1269.05,793.592 L1255.05,818.239"/>
   <path vector-effect="none" fill-rule="evenodd" d="M1300.28,812.057 L1284.77,835.785"/>
   <path vector-effect="none" fill-rule="evenodd" d="M1329.51,833.453 L1312.65,856.242"/>
   <path vector-effect="none" fill-rule="evenodd" d="M1358,854.558 L1341.11,877.322"/>
   <path vector-effect="none" fill-rule="evenodd" d="M1386.46,875.811 L1369.43,898.47"/>
   <path vector-effect="none" fill-rule="evenodd" d="M1414.86,896.776 L1398.03,919.592"/>
   <path vector-effect="none" fill-rule="evenodd" d="M1443.32,917.942 L1426.43,940.706"/>
   <path vector-effect="none" fill-rule="evenodd" d="M1471.76,939.067 L1454.88,961.845"/>
   <path vector-effect="none" fill-rule="evenodd" d="M1500.24,960.166 L1483.35,982.928"/>
   <path vector-effect="none" fill-rule="evenodd" d="M1528.76,981.207 L1511.85,1003.96"/>
   <path vector-effect="none" fill-rule="evenodd" d="M1557.17,1002.28 L1540.35,1025.1"/>
   <path vector-effect="none" fill-rule="evenodd" d="M1585.81,1023.4 L1568.75,1046.04"/>
   <path vector-effect="none" fill-rule="evenodd" d="M1613.96,1043.76 L1597.97,1067.17"/>
   <path vector-effect="none" fill-rule="evenodd" d="M1643.31,1063.08 L1627.81,1086.81"/>
   <path vector-effect="none" fill-rule="evenodd" d="M1672.94,1082.4 L1657.53,1106.19"/>
   <path vector-effect="none" fill-rule="evenodd" d="M1702.69,1101.71 L1687.22,1125.46"/>
   <path vector-effect="none" fill-rule="evenodd" d="M1732.36,1121.07 L1716.89,1144.83"/>
   <path vector-effect="none" fill-rule="evenodd" d="M1762.14,1140.46 L1746.51,1164.1"/>
   <path vector-effect="none" fill-rule="evenodd" d="M1792.12,1160.47 L1775.47,1183.41"/>
   <path vector-effect="none" fill-rule="evenodd" d="M1820.82,1185.15 L1800.4,1204.8"/>
   <path vector-effect="none" fill-rule="evenodd" d="M1844.48,1212.74 L1822.83,1231.03"/>
   <path vector-effect="none" fill-rule="evenodd" d="M1867.35,1239.8 L1845.7,1258.1"/>
   <path vector-effect="none" fill-rule="evenodd" d="M1890.22,1266.86 L1868.57,1285.16"/>
   <path vector-effect="none" fill-rule="evenodd" d="M1913.09,1293.97 L1891.4,1312.22"/>
  </g>
  <g stroke-linecap="round" font-style="normal" font-family="MS Shell Dlg 2" font-weight="400" stroke-opacity="1" stroke="#000000" stroke-linejoin="round" stroke-width="4.72441" fill="none" transform="matrix(0.999452,0,0,0.999452,0,0)" font-size="34.375"/>
  <g stroke-linecap="square" font-style="normal" font-family="MS Shell Dlg 2" font-weight="400" stroke-opacity="1" stroke="#232323" stroke-linejoin="bevel" stroke-width="1" fill="#c43c39" fill-opacity="1" transform="matrix(0.999452,0,0,0.999452,0,0)" font-size="34.375">
   <path vector-effect="non-scaling-stroke" fill-rule="evenodd" d="M1370.19,1077.16 C1370.19,1083.68 1364.9,1088.97 1358.38,1088.97 C1351.85,1088.97 1346.56,1083.68 1346.56,1077.16 C1346.56,1070.64 1351.85,1065.35 1358.38,1065.35 C1364.9,1065.35 1370.19,1070.64 1370.19,1077.16 "/>
   <path vector-effect="non-scaling-stroke" fill-rule="evenodd" d="M1415.18,905.728 C1415.18,912.251 1409.89,917.539 1403.37,917.539 C1396.85,917.539 1391.56,912.251 1391.56,905.728 C1391.56,899.205 1396.85,893.917 1403.37,893.917 C1409.89,893.917 1415.18,899.205 1415.18,905.728 "/>
   <path vector-effect="non-scaling-stroke" fill-rule="evenodd" d="M288.812,168.056 C288.812,174.579 283.524,179.867 277.001,179.867 C270.478,179.867 265.19,174.579 265.19,168.056 C265.19,161.533 270.478,156.245 277.001,156.245 C283.524,156.245 288.812,161.533 288.812,168.056 "/>
   <path vector-effect="non-scaling-stroke" fill-rule="evenodd" d="M770.656,601.248 C770.656,607.771 765.369,613.059 758.845,613.059 C752.322,613.059 747.034,607.771 747.034,601.248 C747.034,594.725 752.322,589.437 758.845,589.437 C765.369,589.437 770.656,594.725 770.656,601.248 "/>
  </g>
  <g stroke-linecap="square" font-style="normal" font-family="MS Shell Dlg 2" font-weight="400" stroke-opacity="1" stroke="#232323" stroke-linejoin="bevel" stroke-width="1" fill="#c43c39" fill-opacity="1" transform="matrix(0.999452,0,0,0.999452,0,0)" font-size="34.375"/>
  <g stroke-linecap="square" font-style="normal" font-family="MS Shell Dlg 2" font-weight="400" stroke-opacity="1" stroke="#232323" stroke-linejoin="bevel" stroke-width="1" fill="#c43c39" fill-opacity="1" transform="matrix(0.319825,0,0,0.319825,495.575,134.137)" font-size="34.375"/>
  <g font-style="normal" font-family="MS Shell Dlg 2" font-weight="400" stroke="none" fill="#fefee9" fill-opacity="1" transform="matrix(0.999452,0,0,0.999452,495.575,134.137)" font-size="34.375">
   <path vector-effect="none" fill-rule="evenodd" d="M-200.5,-25.5 L200.5,-25.5 L200.5,25.5 L-200.5,25.5 L-200.5,-25.5"/>
  </g>
  <g stroke-linecap="square" font-style="normal" font-family="MS Shell Dlg 2" font-weight="400" stroke-opacity="1" stroke="#232323" stroke-linejoin="bevel" stroke-width="1" fill="#c43c39" fill-opacity="1" transform="matrix(0.319825,0,0,0.319825,495.575,134.137)" font-size="34.375"/>
  <g stroke-linecap="square" font-style="normal" font-family="MS Shell Dlg 2" font-weight="400" stroke-opacity="1" stroke="#232323" stroke-linejoin="bevel" stroke-width="1" fill="#c43c39" fill-opacity="1" transform="matrix(0.999452,0,0,0.999452,0,0)" font-size="34.375"/>
  <g stroke-linecap="square" font-style="normal" font-family="MS Shell Dlg 2" font-weight="400" stroke-opacity="1" stroke="#000000" stroke-linejoin="bevel" stroke-width="1" fill="#c43c39" fill-opacity="1" transform="matrix(0.999452,0,0,0.999452,295.185,149.128)" font-size="42">
   <text font-style="normal" font-family="MS Shell Dlg 2" font-weight="400" y="0" xml:space="preserve" stroke="none" x="0" fill="#000000" fill-opacity="1" font-size="42">RZD Kazanskiy vokzal</text>
  </g>
  <g stroke-linecap="square" font-style="normal" font-family="MS Shell Dlg 2" font-weight="400" stroke-opacity="1" stroke="#232323" stroke-linejoin="bevel" stroke-width="1" fill="#c43c39" fill-opacity="1" transform="matrix(0.999452,0,0,0.999452,0,0)" font-size="34.375"/>
  <g stroke-linecap="square" font-style="normal" font-family="MS Shell Dlg 2" font-weight="400" stroke-opacity="1" stroke="#232323" stroke-linejoin="bevel" stroke-width="1" fill="#c43c39" fill-opacity="1" transform="matrix(0.319825,0,0,0.319825,1531.37,871.404)" font-size="34.375"/>
  <g font-style="normal" font-family="MS Shell Dlg 2" font-weight="400" stroke="none" fill="#fefee9" fill-opacity="1" transform="matrix(0.999452,0,0,0.999452,1531.37,871.404)" font-size="34.375">
   <path vector-effect="none" fill-rule="evenodd" d="M-111,-25.5 L111,-25.5 L111,25.5 L-111,25.5 L-111,-25.5"/>
  </g>
  <g stroke-linecap="square" font-style="normal" font-family="MS Shell Dlg 2" font-weight="400" stroke-opacity="1" stroke="#232323" stroke-linejoin="bevel" stroke-width="1" fill="#c43c39" fill-opacity="1" transform="matrix(0.319825,0,0,0.319825,1531.37,871.404)" font-size="34.375"/>
  <g stroke-linecap="square" font-style="normal" font-family="MS Shell Dlg 2" font-weight="400" stroke-opacity="1" stroke="#232323" stroke-linejoin="bevel" stroke-width="1" fill="#c43c39" fill-opacity="1" transform="matrix(0.999452,0,0,0.999452,0,0)" font-size="34.375"/>
  <g stroke-linecap="square" font-style="normal" font-family="MS Shell Dlg 2" font-weight="400" stroke-opacity="1" stroke="#000000" stroke-linejoin="bevel" stroke-width="1" fill="#c43c39" fill-opacity="1" transform="matrix(0.999452,0,0,0.999452,1420.44,886.396)" font-size="42">
   <text font-style="normal" font-family="MS Shell Dlg 2" font-weight="400" y="0" xml:space="preserve" stroke="none" x="0" fill="#000000" fill-opacity="1" font-size="42">RZD Otdykh</text>
  </g>
  <g stroke-linecap="square" font-style="normal" font-family="MS Shell Dlg 2" font-weight="400" stroke-opacity="1" stroke="#232323" stroke-linejoin="bevel" stroke-width="1" fill="#c43c39" fill-opacity="1" transform="matrix(0.999452,0,0,0.999452,0,0)" font-size="34.375"/>
  <g stroke-linecap="square" font-style="normal" font-family="MS Shell Dlg 2" font-weight="400" stroke-opacity="1" stroke="#232323" stroke-linejoin="bevel" stroke-width="1" fill="#c43c39" fill-opacity="1" transform="matrix(0.319825,0,0,0.319825,883.207,567.091)" font-size="34.375"/>
  <g font-style="normal" font-family="MS Shell Dlg 2" font-weight="400" stroke="none" fill="#fefee9" fill-opacity="1" transform="matrix(0.999452,0,0,0.999452,883.207,567.091)" font-size="34.375">
   <path vector-effect="none" fill-rule="evenodd" d="M-106.5,-25.5 L106.5,-25.5 L106.5,25.5 L-106.5,25.5 L-106.5,-25.5"/>
  </g>
  <g stroke-linecap="square" font-style="normal" font-family="MS Shell Dlg 2" font-weight="400" stroke-opacity="1" stroke="#232323" stroke-linejoin="bevel" stroke-width="1" fill="#c43c39" fill-opacity="1" transform="matrix(0.319825,0,0,0.319825,883.207,567.091)" font-size="34.375"/>
  <g stroke-linecap="square" font-style="normal" font-family="MS Shell Dlg 2" font-weight="400" stroke-opacity="1" stroke="#232323" stroke-linejoin="bevel" stroke-width="1" fill="#c43c39" fill-opacity="1" transform="matrix(0.999452,0,0,0.999452,0,0)" font-size="34.375"/>
  <g stroke-linecap="square" font-style="normal" font-family="MS Shell Dlg 2" font-weight="400" stroke-opacity="1" stroke="#000000" stroke-linejoin="bevel" stroke-width="1" fill="#c43c39" fill-opacity="1" transform="matrix(0.999452,0,0,0.999452,776.766,582.083)" font-size="42">
   <text font-style="normal" font-family="MS Shell Dlg 2" font-weight="400" y="0" xml:space="preserve" stroke="none" x="0" fill="#000000" fill-opacity="1" font-size="42"></text>
   <text font-style="normal" font-family="MS Shell Dlg 2" font-weight="400" y="0" xml:space="preserve" stroke="none" x="42" fill="#000000" fill-opacity="1" font-size="42"> Kotelniki</text>
  </g>
  <g stroke-linecap="square" font-style="normal" font-family="MS Shell Dlg 2" font-weight="400" stroke-opacity="1" stroke="#232323" stroke-linejoin="bevel" stroke-width="1" fill="#c43c39" fill-opacity="1" transform="matrix(0.999452,0,0,0.999452,0,0)" font-size="34.375"/>
  <g stroke-linecap="square" font-style="normal" font-family="MS Shell Dlg 2" font-weight="400" stroke-opacity="1" stroke="#232323" stroke-linejoin="bevel" stroke-width="1" fill="#c43c39" fill-opacity="1" transform="matrix(0.319825,0,0,0.319825,1407.45,1042.74)" font-size="34.375"/>
  <g font-style="normal" font-family="MS Shell Dlg 2" font-weight="400" stroke="none" fill="#fefee9" fill-opacity="1" transform="matrix(0.999452,0,0,0.999452,1407.45,1042.74)" font-size="34.375">
   <path vector-effect="none" fill-rule="evenodd" d="M-32,-25.5 L32,-25.5 L32,25.5 L-32,25.5 L-32,-25.5"/>
  </g>
  <g stroke-linecap="square" font-style="normal" font-family="MS Shell Dlg 2" font-weight="400" stroke-opacity="1" stroke="#232323" stroke-linejoin="bevel" stroke-width="1" fill="#c43c39" fill-opacity="1" transform="matrix(0.319825,0,0,0.319825,1407.45,1042.74)" font-size="34.375"/>
  <g stroke-linecap="square" font-style="normal" font-family="MS Shell Dlg 2" font-weight="400" stroke-opacity="1" stroke="#232323" stroke-linejoin="bevel" stroke-width="1" fill="#c43c39" fill-opacity="1" transform="matrix(0.999452,0,0,0.999452,0,0)" font-size="34.375"/>
  <g stroke-linecap="square" font-style="normal" font-family="MS Shell Dlg 2" font-weight="400" stroke-opacity="1" stroke="#000000" stroke-linejoin="bevel" stroke-width="1" fill="#c43c39" fill-opacity="1" transform="matrix(0.999452,0,0,0.999452,1375.47,1057.74)" font-size="42">
   <text font-style="normal" font-family="MS Shell Dlg 2" font-weight="400" y="0" xml:space="preserve" stroke="none" x="0" fill="#000000" fill-opacity="1" font-size="42">ZIA</text>
  </g>
  <g stroke-linecap="square" font-style="normal" font-family="MS Shell Dlg 2" font-weight="400" stroke-opacity="1" stroke="#232323" stroke-linejoin="bevel" stroke-width="1" fill="#c43c39" fill-opacity="1" transform="matrix(0.999452,0,0,0.999452,0,0)" font-size="34.375"/>
  <g stroke-linecap="square" font-style="normal" font-family="MS Shell Dlg 2" font-weight="400" stroke-opacity="1" stroke="#000000" stroke-linejoin="bevel" stroke-width="1" fill="none" transform="matrix(11.8046,0,0,11.8046,0,0)" font-size="34.375"/>
  <g stroke-linecap="square" font-style="normal" font-family="MS Shell Dlg 2" font-weight="400" stroke-opacity="1" stroke="#000000" stroke-linejoin="bevel" stroke-width="1" fill="none" transform="matrix(11.8046,0,0,11.8046,0,0)" font-size="34.375"/>
  <g stroke-linecap="square" font-style="normal" font-family="MS Shell Dlg 2" font-weight="400" stroke-opacity="1" stroke="#000000" stroke-linejoin="bevel" stroke-width="1" fill="none" transform="matrix(11.8046,0,0,11.8046,0,0)" font-size="34.375"/>
  <g stroke-linecap="square" font-style="normal" font-family="MS Shell Dlg 2" font-weight="400" stroke-opacity="1" stroke="#000000" stroke-linejoin="bevel" stroke-width="1" fill="none" transform="matrix(1,0,0,1,0,0)" font-size="34.375"/>
  <g stroke-linecap="square" font-style="normal" font-family="MS Shell Dlg 2" font-weight="400" stroke-opacity="1" stroke="#000000" stroke-linejoin="bevel" stroke-width="1" fill="none" transform="matrix(11.8046,0,0,11.8046,0,0)" font-size="34.375"/>
  <g stroke-linecap="square" font-style="normal" font-family="MS Shell Dlg 2" font-weight="400" stroke-opacity="1" stroke="#000000" stroke-linejoin="bevel" stroke-width="1" fill="none" transform="matrix(11.8046,0,0,11.8046,0,0)" font-size="34.375"/>
  <g stroke-linecap="square" font-style="normal" font-family="MS Shell Dlg 2" font-weight="400" stroke-opacity="1" stroke="#000000" stroke-linejoin="bevel" stroke-width="1" fill="none" transform="matrix(11.8046,0,0,11.8046,0,0)" font-size="34.375"/>
  <g stroke-linecap="square" font-style="normal" font-family="MS Shell Dlg 2" font-weight="400" stroke-opacity="1" stroke="#000000" stroke-linejoin="bevel" stroke-width="1" fill="none" transform="matrix(11.8046,0,0,11.8046,0,0)" font-size="34.375"/>
  <g stroke-linecap="square" font-style="normal" font-family="MS Shell Dlg 2" font-weight="400" stroke-opacity="1" stroke="#000000" stroke-linejoin="bevel" stroke-width="1" fill="none" transform="matrix(1,0,0,1,0,0)" font-size="34.375"/>
 </g>
</svg>
